<mxfile host="app.diagrams.net" modified="2023-09-29T19:49:39.913Z" agent="Mozilla/5.0 (Windows NT 10.0; Win64; x64) AppleWebKit/537.36 (KHTML, like Gecko) Chrome/116.0.0.0 Safari/537.36" etag="3_GtKECw7CUpNajkxRR1" version="21.8.2" type="device">
  <diagram name="Page-1" id="Dpxx7izm7K-RYTJRhyCN">
    <mxGraphModel dx="2868" dy="1516" grid="1" gridSize="10" guides="1" tooltips="1" connect="1" arrows="1" fold="1" page="1" pageScale="1" pageWidth="850" pageHeight="1100" math="0" shadow="0">
      <root>
        <mxCell id="0" />
        <mxCell id="1" parent="0" />
        <mxCell id="muR9lSCtu8aczNtU-lKI-5" value="" style="rounded=1;whiteSpace=wrap;html=1;shadow=1;strokeWidth=2;glass=1;gradientColor=#CCFFCC;fillColor=#CCE5FF;gradientDirection=south;arcSize=25;strokeColor=#3333FF;" vertex="1" parent="1">
          <mxGeometry x="30" y="130" width="1020" height="480" as="geometry" />
        </mxCell>
        <mxCell id="muR9lSCtu8aczNtU-lKI-1" value="" style="shape=image;verticalLabelPosition=bottom;labelBackgroundColor=default;verticalAlign=top;aspect=fixed;imageAspect=0;image=data:image/svg+xml,PHN2ZyB4bWxucz0iaHR0cDovL3d3dy53My5vcmcvMjAwMC9zdmciIHZpZXdCb3g9IjAgMCAxMjYuOTkgNDguOTk2IiB2ZXJzaW9uPSIxLjEiIGhlaWdodD0iNDguOTk2bW0iIHdpZHRoPSIxMjYuOTltbSI+JiN4YTsgJiN4YTsgPHRpdGxlPkFwYWNoZSBPcmMgbG9nbzwvdGl0bGU+JiN4YTsgPG1ldGFkYXRhPiYjeGE7ICAmI3hhOyAgICYjeGE7ICAgIGltYWdlL3N2Zyt4bWwmI3hhOyAgICAmI3hhOyAgICAmI3hhOyAgICYjeGE7ICAmI3hhOyA8L21ldGFkYXRhPiYjeGE7IDxnIHRyYW5zZm9ybT0idHJhbnNsYXRlKDEzOC41MyAtOTYuNjUzKSI+JiN4YTsgIDxwYXRoIHN0eWxlPSJmaWxsOiM2MmQwNWQiIGQ9Im0tNjguODQ1IDExNC41N2ExMi44MDQgMTIuNzA3IDAgMCAwLTEyLjgwNCAxMi43MDcgMTIuODA0IDEyLjcwNyAwIDAgMCAxMi44MDQgMTIuNzA3IDEyLjgwNCAxMi43MDcgMCAwIDAgMTIuODA0LTEyLjcwNyAxMi44MDQgMTIuNzA3IDAgMCAwLTEyLjgwNC0xMi43MDd6bS0wLjAwOTMgMi4zMTkyYTEwLjQ0MiAxMC4zNjIgMCAwIDEgMTAuNDQyIDEwLjM2MiAxMC40NDIgMTAuMzYyIDAgMCAxLTEwLjQ0MiAxMC4zNjIgMTAuNDQyIDEwLjM2MiAwIDAgMS0xMC40NDItMTAuMzYyIDEwLjQ0MiAxMC4zNjIgMCAwIDEgMTAuNDQyLTEwLjM2MnoiLz4mI3hhOyAgPGcgdHJhbnNmb3JtPSJ0cmFuc2xhdGUoMTEuNDkzIC02MC40MDMpIj4mI3hhOyAgIDxwYXRoIHN0eWxlPSJmaWxsOiMwNTA3MDQ7c3Ryb2tlLXdpZHRoOi4yNjQ1OCIgZD0ibS0xMjkuNjYgMjA1Ljc4Yy05LjgyOS0xLjczNTUtMTcuMzIzLTguNzg0MS0xOS44MzMtMTguNjUzLTAuNzAzNzgtMi43Njc4LTAuNzAzNzgtOC4zNDQ3IDAtMTEuMTEyIDIuMTE1NS04LjMxOTcgNy43MDUtMTQuNjMyIDE1LjQ2My0xNy40NjQgMTEuOTc1LTQuMzcwNCAyNS4zMDkgMS4xNjM4IDMwLjczNCAxMi43NTYgMi45MDE0IDYuMjAwMiAyLjkwMTQgMTQuMzI4IDAgMjAuNTI5LTMuMTQyOCA2LjcxNi05LjM0ODkgMTEuODMxLTE2LjQzNSAxMy41NDYtMi45NTM4IDAuNzE0OTEtNy4xNzc2IDAuODg0NDctOS45MjkyIDAuMzk4NjF6bTYuODk0My0xMi4xMDJjMi43ODg4LTQuMzkzMSAyLjc1ODEtNC4yNzM0IDEuNjc0My02LjU0MDQtMC43MTA1Ni0xLjQ4NjMtMy42OTM3LTQuNTA4OC00LjQ1LTQuNTA4OC0xLjQyMjggMC01LjI3MzcgNC44NTExLTUuMjczNyA2LjY0MzUgMCAwLjM3NTUzIDAuNDkzODIgMS40NDU0IDEuMDk3NCAyLjM3NzQgMC42MDM1NiAwLjkzMjA3IDEuNzMyIDIuNjc2OSAyLjUwNzYgMy44Nzc1IDAuNzc1NjEgMS4yMDA2IDEuNTE3IDIuMTgyOCAxLjY0NzUgMi4xODI4czEuMzg5MS0xLjgxNDQgMi43OTY5LTQuMDMyem0tMTAuOTk1LTYuMjMxNmMwLjMwMDE5LTAuOTg4MyAxLjAyNTItMi41Mzg3IDEuNjExMi0zLjQ0NTIgMS4xNjA0LTEuNzk1NCA0LjAwMTMtNC43MzMgNS42MDA4LTUuNzkxNWwxLjAwNjktMC42NjYzMyAxLjI5NjkgMC45NTE5OWMzLjE2MjIgMi4zMjEzIDYuMjMzNCA2LjQwNzUgNi45MzgyIDkuMjMxMiAwLjE3MzE0IDAuNjkzNyAwLjQyMjA1IDEuMzI3NiAwLjU1MzE0IDEuNDA4NiAwLjIxOTcgMC4xMzU3OCA3LjIwMzUtMy4zNTQ4IDcuNzM3Mi0zLjg2NzIgMC4yNzU5OC0wLjI2NDk0LTEuMjY5MS0zLjYzODYtMi41MTA2LTUuNDgxOS0wLjQ2NjEyLTAuNjkyMDgtMS41NzM2LTIuMTQ2OS0yLjQ2MTItMy4yMzI5LTEuNjAxNC0xLjk1OTYtMS42MTQ3LTEuOTg5Ny0xLjc0Ni0zLjk2ODhsLTAuMTMyMjktMS45OTQyLTQuMzY0Mi0wLjE1MzYtMi41MjA4LTEuNzA5MWMtMS4zODY0LTAuOTQtMi42Nzc1LTEuNzA5MS0yLjg2OS0xLjcwOTFzLTEuNDA5IDAuNzQ0MTQtMi43MDU0IDEuNjUzNmwtMi4zNTcyIDEuNjUzNi00Ljc2MjUgMC4yNjQ1OC0wLjEzMjI5IDIuMTI5MWMtMC4xMzExNCAyLjExMDUtMC4xNDQxNCAyLjE0MjktMS40ODc1IDMuNzA0Mi0yLjYyMyAzLjA0ODUtNS4zNzcxIDcuODE3OC01LjAzMjcgOC43MTUzIDAuMTIyNDEgMC4zMTkwMSA3LjA2NDMgNC4wNDYyIDcuNjE5IDQuMDkwNyAwLjA5NSA4ZS0zIDAuNDE4MjctMC43OTQ3NiAwLjcxODQ2LTEuNzgzMXoiLz4mI3hhOyAgIDxwYXRoIHN0eWxlPSJmaWxsOiM2MmQwNWQ7c3Ryb2tlLWxpbmVjYXA6cm91bmQ7c3Ryb2tlLWxpbmVqb2luOnJvdW5kO3N0cm9rZS13aWR0aDouMjtzdHJva2U6IzYyZDA1ZCIgZD0ibS0xMjYuMjggMTk2Ljc0Yy0wLjk2MzM4LTEuMzEwNi0zLjU3MjItNS4zODg2LTQuMDM5Ni02LjMxNDYtMC4yMjA0LTAuNDM2NjItMC40MDA3My0wLjk5OTA3LTAuNDAwNzMtMS4yNDk5IDAtMC41NjUzMSAwLjg0NzM5LTIuMjcyNiAxLjY2NzgtMy4zNjAyIDAuODcyMTgtMS4xNTYyIDIuNDAzMi0yLjY3NSAyLjk2NTQtMi45NDE4IDAuNDM2NjEtMC4yMDcxOCAwLjUyNDIyLTAuMjEwMDcgMC44OTg2Ni0wLjAyOTYgMS4xMjIxIDAuNTQwNyAzLjM3OTMgMy4wNTU3IDQuMTc0MiA0LjY1MDkgMC42MjE5OCAxLjI0ODIgMC42NDg2OCAxLjg5NjMgMC4xMjA3MiAyLjkzMS0wLjY3NDE4IDEuMzIxMi00LjQ5MzkgNy4yMTYzLTQuNjc1OCA3LjIxNjMtMC4wMjYyIDAtMC4zNDYwMS0wLjQwNTkyLTAuNzEwNjktMC45MDIwNHoiLz4mI3hhOyAgIDxnIHN0eWxlPSJmaWxsOiM2MmQwNWQiPiYjeGE7ICAgIDxwYXRoIHN0eWxlPSJmaWxsOiM2MmQwNWQ7c3Ryb2tlLXdpZHRoOi4zMzkwMnB4IiBkPSJtLTgyLjIwMSAxNzAuNDUtMC43MzY1My0xLjY2ODhoLTMuNTUyMWwtMC43MjcyMSAxLjY2ODhoLTAuNzkyNDdsMi45Mjc1LTYuNTI2MmgwLjc3MzgybDIuOTE4MiA2LjUyNjJ6bS0zLjk4MS0yLjM1ODhoMi45NDYxbC0xLjQ4MjQtMy4zNTY0eiIvPiYjeGE7ICAgIDxwYXRoIHN0eWxlPSJmaWxsOiM2MmQwNWQ7c3Ryb2tlLXdpZHRoOi4zMzkwMnB4IiBkPSJtLTc3Ljc5MyAxNjUuNTFxMC42ODk5MiAwIDEuMjIxMyAwLjMxNjk5IDAuNTQwNzQgMC4zMTY5OSAwLjgzOTA5IDAuODg1NyAwLjI5ODM0IDAuNTU5MzkgMC4yOTgzNCAxLjI4NjYgMCAwLjcxNzg5LTAuMjk4MzQgMS4yODY2LTAuMjg5MDIgMC41NTkzOS0wLjgyMDQ0IDAuODc2MzgtMC41MzE0MiAwLjMwNzY3LTEuMjIxMyAwLjMwNzY3LTAuNjUyNjIgMC0xLjE0NjgtMC4yNzk3LTAuNDg0ODEtMC4yODkwMi0wLjc2NDUtMC44MDE3OXYyLjg2MjJoLTAuNzI3MjF2LTYuNzEyN2gwLjcyNzIxdjEuMDUzNXEwLjI3OTctMC41MTI3NyAwLjc2NDUtMC43OTI0NyAwLjQ5NDEzLTAuMjg5MDIgMS4xMjgxLTAuMjg5MDJ6bS0wLjEzMDUyIDQuMzE2NnEwLjUwMzQ1IDAgMC45MDQzNS0wLjIzMzA4IDAuNDAwOS0wLjI0MjQxIDAuNjI0NjUtMC42NjE5NSAwLjIyMzc2LTAuNDE5NTQgMC4yMjM3Ni0wLjk1MDk2IDAtMC41MjIxLTAuMjIzNzYtMC45NDE2NS0wLjIyMzc2LTAuNDI4ODYtMC42MjQ2NS0wLjY2MTk0LTAuNDAwOS0wLjI0MjQxLTAuOTA0MzUtMC4yNDI0MS0wLjUxMjc4IDAtMC45MTM2NyAwLjI0MjQxLTAuNDAwOSAwLjIzMzA4LTAuNjI0NjUgMC42NTI2MnQtMC4yMjM3NiAwLjk1MDk3cTAgMC41MzE0MiAwLjIyMzc2IDAuOTUwOTZ0MC42MjQ2NSAwLjY2MTk1cTAuNDAwOSAwLjIzMzA4IDAuOTEzNjcgMC4yMzMwOHoiLz4mI3hhOyAgICA8cGF0aCBzdHlsZT0iZmlsbDojNjJkMDVkO3N0cm9rZS13aWR0aDouMzM5MDJweCIgZD0ibS03MS4xMTEgMTcwLjQ1di0wLjc2NDVxLTAuNTg3MzYgMC43OTI0Ny0xLjc5OTQgMC43OTI0Ny0wLjQ5NDEzIDAtMC44NzYzOC0wLjE5NTc5dC0wLjU4NzM2LTAuNTMxNDJxLTAuMjA1MTEtMC4zMzU2NC0wLjIwNTExLTAuNzU1MTggMC0wLjY0MzMgMC40ODQ4MS0xLjAxNjIgMC40ODQ4MS0wLjM4MjI1IDEuMzUxOS0wLjM5MTU3aDEuNjEyOXYtMC4zMDc2N3EwLTAuNTUwMDYtMC4zMzU2My0wLjg0ODQxLTAuMzM1NjQtMC4zMDc2Ni0wLjk3ODk0LTAuMzA3NjYtMC43NTUxOCAwLTEuNTU3IDAuNTY4NzFsLTAuMzA3NjYtMC41MTI3N3EwLjUyMjEtMC4zNDQ5NiAwLjk2MDI5LTAuNTAzNDYgMC40NDc1MS0wLjE1ODQ5IDEuMDQ0Mi0wLjE1ODQ5IDAuOTA0MzUgMCAxLjM4OTIgMC40NDc1MSAwLjQ5NDEzIDAuNDQ3NTIgMC41MDM0NSAxLjI0bDAuMDA5MyAzLjI0NDV6bS0xLjY1OTUtMC41NzgwNHEwLjYyNDY1IDAgMS4wNjI4LTAuMjg5MDIgMC40NDc1MS0wLjI5ODM0IDAuNTg3MzYtMC44MjA0NHYtMC41OTY2OGgtMS41MjlxLTEuMjQ5MyAwLTEuMjQ5MyAwLjgwMTc5IDAgMC40MTAyMiAwLjMwNzY2IDAuNjYxOTUgMC4zMDc2NiAwLjI0MjQgMC44MjA0NCAwLjI0MjR6Ii8+JiN4YTsgICAgPHBhdGggc3R5bGU9ImZpbGw6IzYyZDA1ZDtzdHJva2Utd2lkdGg6LjMzOTAycHgiIGQ9Im0tNjUuMzU3IDE2Ni43NHEtMC41OTY2OC0wLjU3ODA0LTEuNDYzNy0wLjU3ODA0LTAuNTAzNDUgMC0wLjkwNDM1IDAuMjMzMDgtMC4zOTE1NyAwLjIzMzA4LTAuNjE1MzMgMC42NTI2My0wLjIyMzc2IDAuNDEwMjItMC4yMjM3NiAwLjk0MTY0IDAgMC41NDA3NCAwLjIyMzc2IDAuOTYwMjkgMC4yMjM3NiAwLjQxMDIyIDAuNjE1MzMgMC42NDMzIDAuNDAwOSAwLjIzMzA4IDAuOTA0MzUgMC4yMzMwOCAwLjQ4NDgxIDAgMC44NjcwNi0wLjE1ODUgMC4zOTE1Ny0wLjE2NzgyIDAuNjUyNjItMC40NzU0OGwwLjQxOTU0IDAuNDI4ODdxLTAuMzM1NjMgMC40MDA4OS0wLjgzOTA5IDAuNjI0NjUtMC41MDM0NSAwLjIyMzc2LTEuMTI4MSAwLjIyMzc2LTAuNzA4NTYgMC0xLjI1ODYtMC4zMDc2Ny0wLjU1MDA3LTAuMzE2OTktMC44NjcwNi0wLjg3NjM4LTAuMzA3NjYtMC41Njg3MS0wLjMwNzY2LTEuMjk1OSAwLTAuNzE3ODkgMC4zMDc2Ni0xLjI3NzMgMC4zMTY5OS0wLjU2ODcxIDAuODY3MDYtMC44ODU3IDAuNTU5MzktMC4zMTY5OSAxLjI1ODYtMC4zMTY5OSAwLjU4NzM2IDAgMS4wNjI4IDAuMTk1NzkgMC40ODQ4MSAwLjE4NjQ2IDAuODI5NzYgMC41MzE0MnoiLz4mI3hhOyAgICA8cGF0aCBzdHlsZT0iZmlsbDojNjJkMDVkO3N0cm9rZS13aWR0aDouMzM5MDJweCIgZD0ibS02MC44NzcgMTY1LjUxcTAuODc2MzggMCAxLjM3MDUgMC41MTI3OCAwLjQ5NDEzIDAuNTAzNDUgMC40OTQxMyAxLjM5ODV2My4wMjA3aC0wLjcyNzIxdi0yLjgzNDJxMC0wLjY1MjYzLTAuMzcyOTMtMS4wMjU2LTAuMzYzNi0wLjM3MjkzLTEuMDE2Mi0wLjM3MjkzLTAuNzczODIgOWUtMyAtMS4yMjEzIDAuNTEyNzgtMC40MzgxOSAwLjQ5NDEyLTAuNDM4MTkgMS4zMTQ2djIuNDA1NGgtMC43MjcyMXYtNi45MTc4aDAuNzI3MjF2My4xMTRxMC40ODQ4MS0xLjEwOTUgMS45MTEzLTEuMTI4MXoiLz4mI3hhOyAgICA8cGF0aCBzdHlsZT0iZmlsbDojNjJkMDVkO3N0cm9rZS13aWR0aDouMzM5MDJweCIgZD0ibS01NS40NDkgMTY1LjUxcTEuMTY1NCAwIDEuNzUyOCAwLjc0NTg2IDAuNTk2NjggMC43MzY1MyAwLjU0MDc0IDIuMDA0NWgtNC4wMDlxMC4wOTMyMyAwLjcyNzIxIDAuNTc4MDQgMS4xNjU0IDAuNDg0ODEgMC40MzgxOSAxLjIwMjcgMC40MzgxOSAwLjQ0NzUxIDAgMC44MzkwOS0wLjE1ODUgMC4zOTE1Ny0wLjE2NzgxIDAuNjgwNTktMC40NjYxNWwwLjQwMDkgMC40MTk1NHEtMC4zNTQyOCAwLjM5MTU3LTAuODY3MDYgMC42MDYwMS0wLjUwMzQ1IDAuMjA1MTEtMS4xMDk1IDAuMjA1MTEtMC43MTc4OSAwLTEuMjc3My0wLjMwNzY3LTAuNTUwMDctMC4zMTY5OS0wLjg1NzczLTAuODc2MzgtMC4zMDc2Ni0wLjU2ODcxLTAuMzA3NjYtMS4yOTU5IDAtMC43MTc4OSAwLjMwNzY2LTEuMjc3MyAwLjMwNzY2LTAuNTY4NzEgMC44NTc3My0wLjg4NTcgMC41NTkzOS0wLjMxNjk5IDEuMjY4LTAuMzE2OTl6bTEuNjQwOSAyLjE3MjNxLTAuMDM3MjktMC43MTc4OC0wLjQ4NDgtMS4xMzc0LTAuNDM4MTktMC40Mjg4Ni0xLjE1NjEtMC40Mjg4Ni0wLjcwODU2IDAtMS4xNzQ3IDAuNDI4ODYtMC40NjYxNiAwLjQxOTU1LTAuNTQwNzQgMS4xMzc0eiIvPiYjeGE7ICAgPC9nPiYjeGE7ICAgPHBhdGggc3R5bGU9ImZpbGw6IzYyZDA1ZCIgZD0ibTkxLjc4IDM3Ljc1N2MtMS44NjM1IDAuODQ4ODMtMy41NzAyIDIuMDAxLTUuMzAxOCAzLjA4NTQtNC41MjA0IDIuOTM2Ni04LjgzMzcgNi4xODYtMTMuMzI5IDkuMTU0Mi0wLjM2OTQ1IDAuMjQ5NjYtMC44NTk2NiAwLjEwMTQ2LTEuMjgwNSAwLjE4NTIzLTUuNTgxNSAwLjM0MDc3LTExLjE2NyAwLjYxODQ2LTE2Ljc0OSAwLjk0MzM1LTAuMTQwNTIgMC40NzAyLTAuMDc4MTIgMS4wMjk5LTAuMTQ0NTQgMS41MzI1LTAuMjY2NzggMy43OTM3LTAuNDEwOTUgNy42MDA3LTAuODAzMjkgMTEuMzgyLTAuMTk4NzMgMS43MjQ2LTAuNzE5MzEgMy40NDAxLTEuNzYwOSA0Ljg0Ni0xLjgzNDIgMi41NjQ0LTQuMDI2NCA0Ljg0NDgtNS45NTkyIDcuMzMyNy0zLjk2NCA0Ljk3NzgtNy41NDM4IDEwLjI1OS0xMC43ODIgMTUuNzM1LTEuOTU5NiAzLjM5OC0zLjg3MTggNi44NTQzLTUuMjE3IDEwLjU0OS0wLjMzNjA5IDEuMDQ2Ny0wLjcxODQ3IDIuMTQxNi0wLjYxNTU1IDMuMjU1OSAwLjExNzg1IDAuNjk3MjEgMC44NzE0MyAwLjk3NTk3IDEuMzY3NyAxLjM2NTYgMy44ODgxIDIuNDczNCA3Ljk1MjUgNC42NTUxIDExLjk5OCA2Ljg1NjMgNC40OTM0IDIuMzk2MiA5LjAwNDIgNC43Njg4IDEzLjYyMiA2LjkxODYgMC42MDY1NyAwLjIzMzE2IDEuMTkyMiAwLjU4NTkyIDEuODQxNSAwLjY3NDM4IDAuNDIwNzktMC4wODc4IDAuNTIwNDEtMC42MTIyNyAwLjcxODY2LTAuOTMyMTEgMS40NzMtMy4zNTYyIDIuMzAyMy02Ljk1NDEgMy43ODYxLTEwLjMwNiAxLjc4NDUtNC4xMTM3IDMuODYzLTguMTQyIDYuNjU2OC0xMS42NyAzLjcxNTUtNC43NzAyIDcuODc1Mi05LjE5MDcgMTIuMjkxLTEzLjMxOSAyLjM0MS0yLjE3NDIgNC43OTUxLTQuMjQyIDcuNDg3Ny01Ljk3MDkgMC45NzU0OS0wLjYzODIgMS45MzIzLTEuMzEzMiAyLjk0NzMtMS44ODYxIDMuNDYwNyAyLjUwOCA2Ljk2OTMgNC45NzM2IDEwLjEyOCA3Ljg2NDEgNS43MzUgNS4yMDI3IDEwLjgwMiAxMS4xNTYgMTQuOTY1IDE3LjY4NiAyLjEzMzMgMy40MTQyIDQuMDc5NiA2Ljk4NDIgNS4zNiAxMC44MTEgMC43NjY3MiAyLjMxMjIgMS4yMDM1IDQuNzU3OCAyLjM0NDUgNi45MzA0IDAuMTYwNyAwLjIzNDY1IDAuMzc3MjUgMC42NjgyMyAwLjcxNDM0IDAuNDQwOCAyLjUzNi0wLjg2MTMzIDQuOTM0NC0yLjA3MzQgNy4zNjEzLTMuMTk1MyA2LjIwNi0yLjk4MzcgMTIuMzY2LTYuMDcyMSAxOC4zODgtOS40MTM1IDEuMTEzNi0wLjY1MzQ4IDIuMjc3OS0xLjI0NjggMy4yNzU4LTIuMDc1MiAwLjAzMjktMS41MDM5LTAuNjA2NzUtMi45MzA5LTEuMTA0NC00LjMyNjYtMS44MjQ4LTQuNTc3My00LjA2NDYtOC45ODM2LTYuNTQ1MS0xMy4yMzgtMi4zOTM0LTQuMDgzOS01LjM0Ni03Ljc5OTYtOC4yMzUzLTExLjUzNy0yLjE2NjktMi44MTQxLTQuNDk5MS01LjQ5ODEtNi42MjMzLTguMzQ1MS0xLjIwOC0xLjYxMTMtMi4yMTAyLTMuNDM1NS0yLjQ5OTUtNS40NTM5LTAuNDE3MTgtMi43MjQyLTAuNDczNjctNS40OTQxLTAuNjkwMzItOC4yNDItMC4wOTk1LTEuNDAxNC0wLjE3MTI4LTIuODA2Mi0wLjMwOTA1LTQuMjA0MS0wLjMzMzg4LTAuMTM1ODUtMC43NTk5Mi0wLjA0OTc0LTEuMTIzNC0wLjEwMzM1LTUuMTI3Mi0wLjIxMDU1LTEwLjI1Ny0wLjM0OTktMTUuMzg0LTAuNTY1NDgtNC43OTczLTMuMjMwMi05LjUzOTUtNi41NDQ5LTE0LjQxOC05LjY1MjctMS43OTc0LTEuMDkxNy0zLjU2OTgtMi4yNTA5LTUuNDkyLTMuMTE0Mi0wLjMxMTA5LTAuMTgwOTgtMC41NzYzLTAuMTc4MTYtMC44ODc0NiA3LjRlLTR6IiB0cmFuc2Zvcm09Im1hdHJpeCguMjY0NTggMCAwIC4yNjQ1OCAtMTUwLjAyIDE1Ny4wNikiLz4mI3hhOyAgPC9nPiYjeGE7ICA8cGF0aCBzdHlsZT0iZmlsbDojNjJkMDVkO3N0cm9rZS13aWR0aDouMjY0NTgiIGQ9Im0tNTEuMjY1IDEzOS43Yy0wLjA3My0wLjE5MDMzLTAuMTAxNjgtNS42NDQzLTAuMDYzNzMtMTIuMTJsMC4wNjktMTEuNzc0aDIuMzgxMmwwLjAzNjU1IDUuNzU5MmMxLjgzMTItMi40ODA1IDQuNDQ4LTUuNzQyOCA5LjA1MTYtNS45OTQ4bDEuNDk1Mi0wLjAyOXYyLjM1NzRjLTUuMTA2OC04ZS0zIC04LjU1NSAzLjE5OTMtOS45MzA4IDYuNzgzLTAuNDk1MDUgMS4zMjk3LTAuMzg1MzkgMi43MjE3LTAuNTEwOTUgOC41ODY3bC0wLjE0MTYxIDYuNjE0Ni0xLjEyNjkgMC4wODE1Yy0wLjc0NjYgMC4wNTQtMS4xNzE3LTAuMDM1My0xLjI1OTYtMC4yNjQ1OHoiLz4mI3hhOyAgPHBhdGggc3R5bGU9ImZpbGw6IzYyZDA1ZCIgZD0ibS0yNi4wNDggMTE0LjU3YTEyLjgwNCAxMi43MDcgMCAwIDAtMTIuODA0IDEyLjcwNyAxMi44MDQgMTIuNzA3IDAgMCAwIDEyLjgwNCAxMi43MDcgMTIuODA0IDEyLjcwNyAwIDAgMCAxMC41NzMtNS41NjE0bC0xLjk0MS0xLjM1NjVhMTAuNDQyIDEwLjM2MiAwIDAgMS04LjY0MTMgNC41NDggMTAuNDQyIDEwLjM2MiAwIDAgMS0xMC40NDItMTAuMzYyIDEwLjQ0MiAxMC4zNjIgMCAwIDEgMTAuNDQyLTEwLjM2MiAxMC40NDIgMTAuMzYyIDAgMCAxIDcuODE5MiAzLjUxNDVsMS44NzY0LTEuNDI2OGExMi44MDQgMTIuNzA3IDAgMCAwLTkuNjg2Mi00LjQwN3oiLz4mI3hhOyAgPGcgc3R5bGU9ImZpbGw6IzYyZDA1ZCI+JiN4YTsgICA8cGF0aCBzdHlsZT0iZmlsbDojNjJkMDVkO3N0cm9rZS13aWR0aDouMTI3OThweCIgZD0ibS0xNS41MDkgMTEzLjd2Mi4wOGgtMC40MTUzdi0yLjA4aC0wLjc0NjEzdi0wLjM4MDFoMS45MDc2djAuMzgwMXoiLz4mI3hhOyAgIDxwYXRoIHN0eWxlPSJmaWxsOiM2MmQwNWQ7c3Ryb2tlLXdpZHRoOi4xMjc5OHB4IiBkPSJtLTEzLjg5OSAxMTUuNzhoLTAuNDE1M3YtMi40NjAxaDAuNjQ3NThsMC43NDI2MSAxLjU0NSAwLjc0MjYxLTEuNTQ1aDAuNjQ0MDZ2Mi40NjAxaC0wLjQxNTN2LTEuOTIxNmwtMC44NTg3NSAxLjcwNjloLTAuMjMyMjhsLTAuODU1MjMtMS43MDY5eiIvPiYjeGE7ICA8L2c+JiN4YTsgPC9nPiYjeGE7PC9zdmc+;imageBackground=none;" vertex="1" parent="1">
          <mxGeometry x="50" y="160" width="570.21" height="220" as="geometry" />
        </mxCell>
        <mxCell id="muR9lSCtu8aczNtU-lKI-2" value="" style="shape=image;verticalLabelPosition=bottom;labelBackgroundColor=default;verticalAlign=top;aspect=fixed;imageAspect=0;image=data:image/png,iVBORw0KGgoAAAANSUhEUgAAAyAAAACjCAYAAAByvHqDAAAABGdBTUEAALGPC/xhBQAAACBjSFJNAAB6JgAAgIQAAPoAAACA6AAAdTAAAOpgAAA6mAAAF3CculE8AAAABmJLR0QA/wD/AP+gvaeTAABtF0lEQVR42u2dd3hb1fnHv++5kkdsS3JCwl5ltGxKGS1QCBRSAkkk2ZJKEkbYo1D2HjW/simFUvYKDZAESbYkB8ImrDILJBRoy2gpM4PE0pXt2JbueX9/2ECASFZinSvJPp/n4Xl44qs7zj33nPd7zjsImrLk+DvYubQxdRQRLmWIlyTjkvaQ69+6ZTQajUaj0Wg0lQzpJig/vFFzMjFfD2CrVf5ZAtRKFv0+dmjDP3UraTQajUaj0Wi0ANEMCX84vS+TvBbA7nkOkwAeEkJe0Nbc+D/dahqNRqPRaDQaLUA0ayY85qa3YYMvAzhY+K94JUHcZFX1XtHuHZvWrajRaDQajUaj0QJEk5fJ4RWbGMK4DIwjAIi1fIWfEWNqLOR6UbeoRqPRaDQajUYLEM0PCIZTo7PEF0jQKQTUFOGUHU62No+ERqd062o0Go1Go9FoyhmHbgI7hQdXZZCakSFcDtDY4qg/fk6yOEGLD41Go9FoNBpNJaB3QOwRHkYfpY8g4svA2LhIp/2KgbMSQfesXAf455pbxw51va/fgEaj0Wg0Go1GC5ARgj9iTmKWV4Fo+yKdkgHMcrI4JxJqWLa6A3xzOjYjB/2JQX4ALzHo/ETQ9YJ+GxqNRqPRaDQaLUCGKb5wancCXc3E+xXtpEyLCDglV8B5MMy1fZT6HYEuBlD/PdnylBTy3PZA41v67Wg0Go1Go9FotAAZJvjnmluzwJUgbipi+ybBuMQJ122REFmrO8AbTgaI6I8ANs1zHsnAHMnWhfNCoz/Rb0uj0Wg0Go1GowVIhTJ5trmOw4mzGXwGgKoinZZBeED2Gee0T6tfkkvwSIP/TMBBa3DalQRxk4N7Lo+ExnXqt6fRaDQajUaj0QKkQpiSWNYg+qrOAXAmgLoinvotBp2SCLpeWt0fg+EV7gwZLQB+C8C5lm//Y4DOiAdccf0mNRqNRqPRaDRagJQxwTBXZcg8AcAlAMYW8dQdRLjEIV23r87dqqWFxaLt0zOY+UoA6xanE/DMjnXcxz+7H2X1m9VoNBqNRqPRqETXAVlTmMkfNX+TIfNyMLYo5pkBnulk4/xIMEd2q3Bq94Vk/gWM3Yv7SGis+nRJNQAtQIaPQDb6KHW2ymsQo2ONfiCQJAYPdPYUC0iyyATYMgSZILYkiVSsybVcv0GNRqPRaIYvegdkDfBFkr8C6BoAPyvyqf8uBE5ta3a/sro/+tvS49iyrgJoBgBRxOtmAfxfPOC6HESs3/DwYeJ8rq7uMnsq9Pb7QFgCpg8AfpfALzhYPqGLbWo0Go1GowXIyBEe4Y6dAXE1CL8u8qmXEfFFO73jvqelheT3/zh+ATs8X5mnAPg9AE+Rr/2eJD6yPeD5e64DJsxaXPfEEet16R5QecyYyTXJenPlMHqkLEAvMvCIxY45D4dGfa7fskaj0Wg0WoAMP+Exp2MzOMQfAExDkXceGLiVHPL3cX9jcrXXjiR/RaA/M7BdkR9LEvhP7k73JfcdRatdIfeHUwdJ4GIi7AXGm0x8Z1+d+75HD6Ze3Ssqg2CYazNkdg/Tx7MYeFKA7+1Yxx3TsUsajUaj0WgBUvH428wxsPgiBk4GUF3kJn+GDDot1tTwzur+2tTasSlL448MDih4tA+J6ahchQybo+ZPssw35Ejp+wWA66yarjvnTd6gW/eS8mbyvC9GGT11w3/3ivAxATd0da+8R+/WaTQajUbzXaYkljWIXscWLIyNCeyGhIeJ60DCI/i7OkASGCyTBJElQoeU6ADhK84aH7VPrftCCxClRtuo0wA6D4C7yKf/hMBnx4KeyOr+GAxzbRbmOUw4D8CoIl87S6DrHdxwWSREK1dz7aoszPOZcGEBgmspEa4Yu9x1250nUEb3mvJkwqzFdaNqa0dSjZclYL5sXIf7bt0vNRqNRjPS8UaSFxLESQBvVKRTdgJ4unvlyunFWPDTAgRfZwxKHyUgWxi0YXHPziuZ6DpZ3XVNrp2DpnDqEEm4CcCPFDze38HyuHioceHq/ugPm78A8V1r6urFwL9AOCsRcM/XPagc+/TS+gxVp0fcgxPeB/PJ8aDnad0LNBqNRjMSmTKnawPhyP4PCrLdMuGgRMD9+FDPM+LT8PojpjdD5lXE2IaLrMcIHMsyzpoXdP93dX+fHF6xiYPEjRLwK3i0bmK6xIGGP6+unsiUxLIGkam6kplPxlrEtxDwEzAe8UZSjxlCntjW3Pg//cmXD73VRKJvBD44Y2uAnvRHkvf19eGsR6Z7OnRv0Gg0Gs1IwnBYu7AiG5+YtgegBcja4o2Ye4L5WgbvhWInoCX8kySfFgt5nlzdn4+/g51LRqfOJNAlXNzq6V/zhMV84rzQ6oWPtzV5AGXoXjA2Hvqj4iApxdveaCpUDEWsKQ6ZtKDq6hH7+MSgo5xV2N8bTf0mEXC/qnuERqPRaEYKkngrVcUVGLx5Mc4z4gSIf256GxbWlQD7FDigpZhw2brLXTfn8kP3RTrGL4V5C4G2VfB4XzFwViLonrW6P06cz9U1XeZVLHE6iut+5xLMgWIoYk1xqK8iHQgBbEqM572R1BmJoPtW3RwajUajGRnw+qqiLIixiRYga8CUOV0bkMNqYcijACr2c0sC/9XKOC5on1a/ZLXXn925rnBafwQwHQp6BQMPVrE4IxJafRV1b7hzB+pKPcigHRQ073+yGXGB/uDLh4yTSNe1BwBUEXCLN5rcLNHsPk8X3NRoNBrNcIcg3ACrOvkYLUAKIBhe4c6S41xG9nQUP7sUwHgdwCmxkOe11V+fjawwT2S2LkfxiwkCwP8AnJQIuh9d/f0xeVvN08HWlQDVKLj+CzLrOHTetLqv9CdfRgKkm8hZpdvhm/GS6Rxfqzl25xY+ZnVFPzUajUajGTYwe5SdGhitBUgeJs7n6uou86QMcBHA6yi4xBIiunCndxvuy2XQ+MKp3TNk3grGzxRc3wLhZqfsvTgSGrfadKtTEssajGjqrwxSEeTOBL6+Yx33BfkKwfnbOnaSFv1cMp6YF/L8V48K9jDKqV2wVjNqznhrO7MHzCfrnRCNRqPRDOP5rl5VnlvSAmT1tLSwWLSdOZW7zcsBbKbgEhkAtzjZaokER6diqzngkAeTjY4quhLA8ShuBfWBl09vM/Nx8aD7tVzHTEksaxB9Vc8zsLOCNlgBomNiAXc8t/BIj2PJf2CLjyHAMAjSG0k9wUJc1d7c8LweHdTSkyVhOLWNvZqB80Rf1FwWBy7VraHRaDSaYTrZqbTvG8FMQ13IE8Opvf3h5IELtzP/zsADYAXig/EUs9g5HnSfEQmNTv3w70z+qHmks4r+RcCJCtq3E6CzO9Zp+Fk8lFt8AEB1ryFACly+GI/LrGOHeMCVW3xEzaPZkv8G8/EAjK/7GgEHCSmf84VTj/nCyZ/pEUIdNQ7SNX5yc7E3nAzoZtBoNBrNMMVQeG7nlPav6oeukYYBU6IdPxUsrgFwoCIl+TGxPCsWbGzLdcjkcHJzg+guAL9Scg9MrcLInN7WPOazQn/S1Lp8I2k5HwbxTkW4gy4wnxMPum/PpXonhbs3dFDmLgATC3oiUKsgvrA14P5AjxVFFuNt6XFsySW6JXL3Z4No19aA61+6KTQajUYznPBFks8CtK+q8wshNxtq/beK3gHxzenYzBtJPSBY/F2R+OgG0OKUrm1zig9m8kdTvzWI3lYiPggfATg4HnIF1kR8AEBb85jPeusb9gD4egBDCbx9STJ2joc8t+USH76wOcNBmXcKFB8AQAwOZBlveyPJC4+/g516yCgeVo/eARmEOov5r+MXsEM3hUaj0WiGE8ykdG7L8tDjQCpy8vW3mWNg8UUMnEyAknJrBIqSsM7Op/B8c5NbIJq6h9WozF4A1zql66pIiFau7oBgmGuzSJ3GoJVOiNmrS8H76MHUC+BsXyT5KCDuA3ijNbiHLmK6NFc1deDr9MbZOwE+ZO3aGTUAXbFsdPo3vnDquMFcyzSFUe2ADkIfnN09X6XOAXCVbgqNRqPRDBeI1G4wGNLhGrqdXUF8Y3ATnQ/ArUZ44F0w/y4W8jyT7zhvODWNCLcDaCi+dMVTJOm3sUNd7+cUP5HkBBDdCsYW3wgWwl1OKf4vVy2QQx5MNjqr6DIAJw0mPhl4jLLypPjUxo9z3kM0dRgYNwFoLNKTWwBa4gHXFTpL0dBoau1aX8rsF7olBhfZWXb++OHQqM91U2g0Go1mOOCLpF4BsIeq8zPhkETAPX8o56iIHZBgmI0M0jOylLqMQRsqukwSjJaOsa5b8qWVBfozTFEf3w1QbZHv4QsCzoqF3HNzXnt257qiyvoTGNO+V2OmGoxTMiSP8EaS18ia7hvnTd6ge9UDHpnu6QDwO284fTtB/gmEX6/mEksJODMedD+Y6x4GhMztYISKLaoB/MEXMZNx4GY9hKw92T6Q0M5FhVDnoMwVAGboptBoNBrNsIAhVG4xCOa6IZ+j3NvQGzUnZ8lcBOK7FYkPCeJ7yBA/jofcfx5MfABAu3dsmkDHoXhlJi0GburtzW4TC+YQH8zkjZjHCqf1TzCm5TmXi0BXGD31//ZHUoeu7oBEqOG9eMh9EBMOIeavU+JmGLjJydgmlkd8+MPJ/Z1V4m2g6OJj4JvBI909K2fq0WOIndrQMSBrwOH+uebWuhk0Go1GMyxQ7ILFLIYsQMp2jbSpNfVztvgaZt6HlTUgXmHBp7YHPH9f09/Ggu4HfdFkBoz7hrgT8qokeVJ7oPGtnCIsnN6WoubtAH65Bk+3EQNz/JFkyMGOkyOh+sU/ECL922fzfeGOndmSyxNTx3ya62z9hR1TVzDoDICFmu+F706u4z7p2f3cWT16DI0qYyVJacPnzXiKiZ8C6EtirvnmnwmNAqKRCY3EcqxkWl8Qb8yg9aA2PeDaIGDIcwAcp3uORqPRaIYBSgUIiaHvgJTdKql/rrk1C1wJ4iaF9/clEV0Qa26YlSvWwB829wbxRg52tUVC1JdPKEmJOIB11/AeloP5wp3fc9+dq5L6jJlck6w3LwJwLoCqITzvcmb8LhFyz16rd9KW3h4WP8jgHZWZscCl8aD78nwH+eYmt5DS0dk+rV6nlx0E75zlG5PD8YnCS1jMfGgi5ImuyY/GL2DH6BUr1mPLuRkE78TMu4Bo31VimUpFr8wYm+q+pdFoNJpKxxc2FxapBEMOo43PTwQ91wwLATIQ2/B7MI4FoColay+BbrSqeq9o945Nr+6AyeEVmxjCuHYgvoEA/I/A58SCnkjOFz2nYzM2xBwi/LyAe8gCuM3JaImE3CtynjOS/BVAtwHYqojP/9feOtcJA5mxCuhhTL6oeRoDV/Vnq1JCmkCHx4KuRH5j2rh/lZzWLxBw62DicCQzObxiE4OM/ym7AOG+eMB9VLFO19ya/JElhR/gwwDsXJpWo7PjQdf1uvdoNBqNpqIFSDT1XyUFub/lD/Gg+9KKFiDB8NL6DFWfDeAsAPUKL5WQjLPbQ+4PV/fHCbMW142qrT0P4LNX51JFoKiVEafkWiENhtnIUPp0QP4hj0vWE8zijESo4b3c7ZEemxHyejAOV6Na8WAi6D5ssOMGigrOhKrijv18wCx8+drDG00dTIxZAMaspvd+CsmXj+twz7zzBJ11dlWaWjs2lVJ8rMxUZ/7VYJni1noxojW9j5DyIgATbG005nfiIc8OuvdoNBqNpmLpXzxeCUVlKgbsrz/FA+6zKlKAHH8HO5eMNo8j4FKsufvSmvAeMZ8eC3mezPWi/FFzGoOuLqBGxlcg/C4ecM/JdUBzNLWVlHQHE++3ykX+wSQuSgRc8/J1GG80PYPA163W2C4O/wHL5niocWG+g7zhZICIbld4H2DgsWwfTxvIzPUDxi9gh+er1BUAnVNAP/0PA5dVsevBXPVKRtzqx5yOzeAQ/1V1flnV58q1i1g0IRI2pxgkb1WY+e6HA6Ihdog1Nbyje5BmTfG3mWM4a20sYWxiOKz/xZoaF5XjfU6Z07UBGTwGJD0QshpS9EqiFejjJfOmub7Sb1KjqfCxKGz+golfUjpXgu6IBV0nVpYAYSZvJNVMRFeiuO5F36eDCC0dY1y35sps5QundgfhRgC/WLNG45nuTvfJ9x1FPbk7QHJ/FhSQkh5rDzbMy1fXYko4taUgugPg/RUa/I9k+/jwXAY/0J9eWGSqbgIrTUnKBLrWwQ0X5RILwXDnehmyIgD2XsMzL2LCqYmg64WRPgBNDic3N4j+o+j0qXjQ7bHHqEuPQ9aKMNE+tgxPRfBrVTFmNrV1ryet7MYEdoPgAYlRgKyV3F8PSRBSLCEBYRFJk0GdzMZnVeDFueoCadaOYJgNyzB3sSTvQiR2geSfgrAtgFWCMum8eNB1banvdVK4e0ODshMA/ILAuwL4MYBR+b5tAO8x8DoRLXDK7IJIaHRKv3VNpTDxgeWumipjD4bYhMAbSsI4Ao379ghpgMm1ikHSS6BVShZwNxMvFVIsZvAyS4g35zXXv1cptckmPrDcVV3teGSN7ac154F40D0kTx1bBYg/nN6XSV4DhcVR0J/S9i6ZoUtyreZMmdO1geHIXsXA4UNogzeEkM35KqUPxvgF7Ghclj6DSV6moKbIN+0BoGXnd11X5gp2BwBvxNyTwPcD+JHCd9NNwDE5Uw1/q9yjADZYe62FuVl2njOSi8v1x1TQR2pWPvBuLOje3kaDrzYDsx2EA2y43AvxoHufUrwzf5s5xmJrRyHF9gzagSC3BmhjABthaEkoekH4Eox3mPCmYHpTZjNv5st6V45MmLW4zmnUVAGAQ1j1jirDCQCSuIGz5PjWvDDqCFbVt/oNSSHBhoGO7lr35wXHwK1+bDoBwCQMujtcOgHib0uPY0tOA3AYgF2GOM/3AniMIGc52JMoxg7zqu+RnFWjqo2+agDoY6PWkFYNAAhD1FiQtQAgpKjBwP8zUTUkj+o/hh8fyvybz4ATZBgAUF3DLgIZP+hnxA0s+v+fWNQTy/6+iG//nwXVEZOwI64sGOaqPkqdQUw9AK8EABKiFyy7+40i0UtG//8zjD5hWV39/+/ocxjZLgDI9lmZrDQ6AWCUsy8TCY3rrJSx4fg72Ll0jPmbgcXT8Sh+psWlICxgYGai2fVEuYiRyeHk5g5gS0n4EfXbblsCNAFqwxm+pgvAv/q/ATIZbAHcCRIZAq9koh4w9xKoWxJnwZwWLCRD9i9oCCTJpgFxe7bkVQMDt0LoWTKs03Ntfc+YyTUd9akzCXRBkV7QcoB/Ew96nl7TH06JdvxUSHE3CLsobJD/EdNhsZDrxbwf7mjzUgAXQGV6VMLHkNKfz/3LH02eyEx/HqKxtcrHwVc42X39SAxU981NbgGDPlR0+qfjQfcBdj7PxAeWu6prHK+DobpeR5+n0+XOt7tZDFpaWCzaMbkDpNgXTL9k8J5DEN1r/00y4sQi7kD9i+Xmvuhv69iJLfEqiuvHbAH4LzN+X2hWwEnh7g0d6LsZRL41aFzbBUhz1PyJxfIcgA4r0hj6g/kEwPVOdt1R6JjqC5szQPyngfnWWdzuS5NjQdfDRelrkeRdDDq22A3GQE8i6K5V/e6D4RXuDBlJJcME88WxkOeKcpznpiSWNVCm6lgCzgBjY5vGzffBuNnJrrsjIVpZsjk+mrwbTMdUsp2iNE9wU+vyjfyR5L1syYWKxcf/CByKB1375RIfvqjpS9ab7xLoiiKqwzEAzfdGzclrsFJR64+YVwsWr6kVHxSBQ+6cT3z455pbL200/wbgYqitzfCk1Ue75RIfM2ZyjS+SvIeZbivixFkH0JUZmC+PxCJzUqgrRMhAj93P8+hhY0xInjZgQKqkynSlf6ZKRPkjqUN9ETO8cDtzOVtiITP+zOCA7eKj/0VuBuB0JvlshszFvkjqhqbWjk3LpQ9bkpwofhClAWBLEvi/Qg72tiYPcFDmrTUTH/YyKdy9oS+SvMdifgegoxWJDwDYFMBNGWH+2xtOTSuoi5FcF0AjFGS2JOayd4kh22oeGcquw0RlV7A6GOZaX8Q8V/RVfUyMP9kmPvrHza0B3JSh9Pu+cPL48QvY9np6x9/BTjAdWel2ipKO5Yt1ePwR82opjfcZdJRC47YbwKVOdm2TK01uc9T8iS+SehzMMahxL6oi5osKapdIx/gMmYsYfB7UFYHsAtOx8aArFPc35lwR8YWTx7PBb4Kwm8pPlUBXOtk1MZc7XFPr8o2SdebzAxOnihlgFzb4xWB4aT1GEE6hzr1SgEuyoxQPed4g8Ezl4k0WlE67IFpaWPgj5iRfJDWvutqxlIE5AAcBeMqsy6wD4HQpxYe+aOpBf1vHTqW+IQepE9Fg/GjiA8td+Q7xR80jSdKjAMaW4zfe0sLCH0391kGZfw2Mn/YYu4zNiPCgL5J6qjmayh/HSUJZP7cEKsEn3xbjvSerTiQQl1G9uP6kQUdmKP0+wNcAGF3Cm9kIRHc0fpV+wxdO/szOKy91pzZBGRcSL3iML+bJJs7n6prO9G85yxcyeIzCEBNm4CFks+fm8mPuD8QxLrWYfwd1dUUAUKS3N3PsYIKMsnQdg46B2ribtyTT1PaQ6985J9W29DhY8i4GpijuWykCHZm3vkfE3NOS3EqE9ZQOE4Q7I8HK8WctihGdJYKhZn5mlC7lsSC61mIcrXRiJx5yfMvxd7BzaWPq2IXCPN0Gt7HizgmMaWyJQ32R1C2yqu8i1dnOchqYDKFwsCRnlXN9AGaOselsZr4WZVist3/hpmv9RVb6QWbsV8Lb+JXFvMgXTp4VD3luyzFTe9R9plqAfNMWEIaqzWGm8vgGJoeTmxtR8w5WWxpgLeZD3hFEr/gi5nXJdRouzZX0qKgYSut7VNbH0dLCwhdNHVbdZf6bia+HwvStYLxJTPskgu6pqxUfAwq5qtrxb4DOUig+usB8cjzoCj162Bgzp8Ef6WhCVrw34F+q6kNmAm7orXP9Ip/4aAqnDmFLvq1cfDC/YxB2yyc+/FHzaAI/Q1ArPgi4IRFwX4wRhiWUTholi6lpDbg/ALBA8Yzy46H83D83vc2y0eZbILq1wsTH9+eGU0Vf1TveaOrgUtyAodjwIbF649gbNa8aSIdeluLDGzF/acnsm99N9V4qqBZEt/oiydYJsxbX/VAkkLLdowoRIARm5f3IUa1uB4QJJXfB8kfNIw2if6DMxMd3Fm7AF3i+Sj/pb0uPUy56WLi0AEF/utmF25qvg3E/+n1EVbGUQcft/J5rt1xxDVOiyV29EfMlZr5PrWFLzxqCd8y56oP+FSpfJNnKEK0A1lfYLkuIcXAs6D4zV3aXYJhrvZHUzZIwD2prroCBud09PT8fMBR/wPgF7PBFUzcy8z1QWSSnf+C8IhZ0n4kRiEoXLBCyJX68hOLzr7UA8beZY9iQCxjYbph0pU2I8bA/nLzI7guzRaoNN89qjPuzifn8cn0ZvmgyROAnVS/crMWg0DSqtvbpybPNdb73FjdXdUVZGS5YGP+sHa5xPcquUUoXrP6Y2eRdzHwfvpPmulzh8Szl3/1taaVZIgXxqOEwuay1C9bkaHo7Q8prmaB6dSwDwl+c0vq/SGh0KrHaTpoemyXrSmY6GmrVeicRzo81N9yaMw1bf0HBY6TMXgeQR21fx3yZNY7OVZ29X5St2DHL5mxSbxBlAJybCLpvzD2YpEZnlpkP2ZFOlcHnJwL56zn4w6mDmGgfyXiFazufmjd5g+7hIkBUumCVfIhn8TTlzihdDEZPmLW47okj1uta419msQ1IrcgvhXXJRJf7I8nNOtZxn2SLiwEAMiBY5WuW390B8UdS0xl8bbm+BH/UPJKZ7wUgyvQW93A4+dlguPOASKh+8cBihTIBIqTS3lE0xi5T/74yFglD5ZJTKfp7mzkmY5nzAPoFKgnGxmzJZ5taUxPbmt2vKxqRR4EJFU52jQVIU2vX+pa0LiOWR4OUK/tHJdMZ7cHVuxWNX8AOzzLztxmSLaqNfWJaIAx5bGuzJ2dxt+Zoaisrmr4T4PGKe/hKIjonFnDlFUK+iPk7ZlzNQI3a7w2LAQrlKwDoDae3zZBMANhS9edPhFPjAc8t+Q7yRsxjGXw7wIYgAD11pi+amiklbm4PuT+s9C9bClDFD085qEL9vzMwO6Ew1/moqpr1AKxxHZWunu63RtXWZjEMAgR/+J3TsY1fpca0tHAgX02hol3PglInLFolgNUfNvdm8L0oV7ersOln5rvLWHx8PRdslxHWc02tHROsPinRnwFLzRhnVMYOSF2XHe9MqNsBgf1ZsJpaOza1LH6MgJ9U6HA5Rko85Y2mJiQC7leL/p1JGoXKn+B7C+5YwfDSel8k1SJl9gMCHwe1NSPeZ8Ih8aD74FwxDf5wcn/PstRbA5XMVYqPNAO/jQUbfpVLfIxfwA5vJHmexbxIvfjAW2QZP4sF3LfkEh9TZneu642a80G4kVSLD8bfOOv4WT7x4Y+Yk4jkyzaIjywRHRULuPOKD384dSmB7/peH3aBcZog/NsXSc3zh5MH2uG7q1KAqLRES/lskRBZYLyvdDp3irVycRnYNVk0TLUfGORfuL15nS19WHUMyIAAmTBrcR0TPwB16WuHhD+cPJCI51SMqGVsLaV4gxyOe5S+P1kZAuQLY4lyFyxDqhM5bLMonxxesYmU4rkKFh/f2BTEeFhFGQAmrkHl0zdopx2/gB2+cPL4Pqr+AMDvodYPLwXQ2U7p2iERcM/P1Tl9ETPMRE+DSKmfHQOPWGxtnwi6c+40NLUmd/F8Zb5GoKsVVjMHAAnwtU52/Tx2aMM/c64chFOHCKf1NgEH2dCB/rJuh2u/9ql1X+RQJ+SLJC9gcAKA6qCpbiZqigVcf80totnwRlK3MeGyfLYngElM9IQvkn6rKZw6pBK/bIfAcN0A+dp6VFrF22J2D+HenhvWbc840xtJnqD6MoLVrrxKoo0AoHZU7fFQG7+41kyJrtiRiWJQHC+ngDFQHDBcIUHoqHEbyncQSOkOiH27bk2tXesbZDxVrt/jWrAOG/xYsQPTBVf+/M5Ab94VFX/EnMRfmdeAaFvFTytBPFP2OS7KFc8QDHNtFuY5TDgPUB6As4SZT0uEPA/lMWZr+0TqMinpDKhemSJ8CpZHxIONz+Y6ZMZMrkk2mNdJxm+hfsWim4DjY0H3g3nbJ2reC9ChNvTl5cQ0OR50vZzvfjJIzSasQUEx4p0k8LAvknpRCDq/rdn1t0r5uC2ZEcKuGlgl0R+8TOUYLFiu9QoTM8UJPKyTHxDoL75w6q14yP2asgmKskptHyIcOGHW4jpinFKObRwMc22WzdlcEcG3JRjjDK4IAVLdq16ACAeEpag1GNIWY3fCrMV1UmbnA9hqmHXVzTkrH2xp4V/b4bpaOXNIDhesKdHkrv6w+QyD5wHYVqkKYvwNzLvHA55jc4kPb9j0Z8h8d2DlWqX4YALPdDK2zSc+/OHk/hky3yamc1SLDwbmwpA75hMf3nDnDsm61Ovon0hVDxYfSrJ+kU98NLUu3yhD5gsEHGpDL/7YINo7FsotPg55MNmYIfOJIVQz3ltKftEXSc3zhjt3qISP21BYCZ3KwE+eQUrrukgWay1Afvpuw98ALBnm84cThAdWl3q1aP1M8Q4IGFuMqq39HGoK1A6ZjDCvH0bZ1IpvdFeIC1Z3RigXIH0ghZXQbRjvmWlU7aiZAHYeptb2AQu3My/VX+132uS7OyBNrR2bShZXgjGVSbX/O33GzOclgq45OWMZwuaPBfFNAE+woTk+JOYTYiHPM/kMWWc1rmOmo20w9FMgnJIIuB/I99H6W81TJVvXAKTeJ5AxD055RLt/dDKnGPq6uKAdaSKZFsmscXA8lwvYgBhiSY8VaSKfRGQd5I0mb5DV3S3lnDWLs+oCeLkMAmGZOKNyiKIhxLi1tJD0Rc0EmI8f5lPIVrW1o24AcLyad2yL0HWXY8P6oqYPzCdpKyWfQHVUhAARJJRvRQtJypxuidWP995o6lyAgsO8y17iD5uP51ssLbOxUS2S+2NAJs/7YpQvkrzGkuJfYExTa1zzSgCXd6/s/kki5J69OvHRH/CevEYQvw1AtfjIMtHVTnbtmE98+KLJZmcVvQtWXs0cAF5AVu4czyM+pszuXNcXNR9hxp9VB5oDkAAuiQdd3ri/MZ/4OMqO4oL9gyItcCK7b3se8TE5mt5OsuOlIq8iOojpHKOnbqHqXN9DemEKY0C4HIJhmRqU9i/inqG1EbeNCCMQfKw/bO6t5BUP9zimXOPWvC9GEcubtcTIj1UhWbAcNWRDDEhGYVIgtQkVm1qTuxDoDyOgywomvnvifK7WXy8Aol7HlNb0PqJHzgTwI1L+kVCUs/Kc+FTPx6ufcZi8EXNqhnAdgA3UGzF4nRzyuHhTY86sNVPmdG0gjMwt4LV231kTMgxuqWL3NZGpZOVZLTiY2LoXsKXewHImTE8E3I/nOqClhcXC7VJXAXyuTV033FPfcESuwovAQFpNlu1QlwZyK7bk38Yv4DF21UVYM5VEJFnZd1zy4BIiuNSaH2LlUH5dJV0LMmSuwCqpXofrNMLEN7S08B7F9m8mWd4pZ5V9uytHncFEG2oLZbD+URkxII6segEiDBJSVXSBwh2QYJhrM2w+AMA5QrrtttVd5gUAWob2Tig9LNLwGpRNQf029FuA3C8WdAXjUxtXKz6mRFfs6I+kniXCgzaIjy4mnOmE6xexXOKDmXzh5PHCkX1vCLEDa2LVvS+J90wEPVdGQqsXHzNmco03kvozMR62RXww3kRW7ppPfEyYtbhu0XapKEC2iA8Gbtr5XdfUfOLDFzV9TPIJheLj63u5vxzFBwBICwpjQGTJd0BI8kZq3601pBiTSIj6CBQZIZPqrou2M6cW/R0QjbgdEH9behwTnaflRQFGd4VkwVoJYcOCDaksi6DsO8yQeSEY24ywrnvOpHD3kBYYiOjTSm8EYuoVsabGRZLkgQBWKDDQFoPp2J3fde2aK4jaF+vw+CKpmwQbbzDRPjYYsI8hK7dPBNw35DL0p4RTW/qi6WdAdAfs8BEmurO7e+Uu7QHP3/NMTNsn61OvEfA72BAETOCZni7XXrkEIwBMCndvOKqm9nkG+e3QHgw+PxF0n5ZvpdUbSZ4A5qjilMj9grGm69xy/biV1gEp9Q4IMzHRTiovYZCxeMitJHD/SJlRGTix6AamHHkuWNKSlwJogKaQUagiBIhhrVS+A2Ip3KVgRekGfXOTWzBwdgleSRKE9wH+B4AvS3D9UQ7q+7+hnMDB4lX0u8ZX7lhH3B+E3h5ofMsXTk4A0ZMowqoxAz0EuoGreq9KeMem46s5pqWFxaLt0zM4y1cBGGfD8y4j4Ix4/tSxRh+lzyDI/wNQa8c9SaZj24Ou9nzGli9i/lZa8jqyI9Ac6GXwafGg5458BzW1Jndh2dfOsMVVIMPAsYmgZ1beAS2SakF/rRrVpFgKfzkHoat0wZIobX5f30OpH8EgpQsD3T2ZL4Z6jramhpd8reZHYGwxAuzBvXxzk1vED/V8VLR+JiCIMWLwt5ljpMXHaGlRoNFdIVmwjCr1WbDAZEBRcxApEjcCf7QhfvXrBvoHQPeSRfNjv2n4YNXY48mzzXUcTmsfhjgCwCGwJcaRjvTPTf8xX023fERC9Yt9kWQcoKaKXUBYtQ5IPOR5o6k19Wsp8QSGVFmcIpS1zs23ct7UmtptoTRvBmN3mx50Fgw6M9bkWp7rmCnRFTtm2LyHgF1tyjL6qJONoyOh+sW5J6T0OBk17wXhELKnoT6FRCAR8uTN7e+Lmj4p+QHYk5++kxjBeMj92CDC8TaAj7PhfrLEHIyHGt4r69UFS93GOXGJg9ANmqz4Cuajh40xizBzMyKpB4ooirsJ3CFBafq2ajcNLOCUulYEwaCpAC4v2muWIDmS9kCyOJIIpapwzADeAPAagH8ReHH/YgPVErAJgC1B2BeMzcqluSrFBcuOmDnBEKqSAqrYAWlqTe0mJbw2NP8nzHxuIugOfyM6vlccYN4011cA2gC0TQmbPzaIr2VgiupZjA3rbABrveDgZDouS5xiUDPUF3peG5ID40oaQBbgLoD6AKwEoweEN75jSLQ1u1/3RlMHEeOxtRAhf2fQmYmg64VcB0yeba4jnLhSSj4G9qTy/A8xnxgLeZ7MdcDE+Vxd3WVeBMb5sCUQileC6dx40HVLrvTDAOAPpw5iS95H9gSaA6BnnJIOjYQaluUVHxHzXDBfZdP7WyoEJrU1u1/PIz5qs2TOJfUDxsAszafE8/SncoFFvt419MGzxI8XUnz+fxatoQTPsiRdsgbfSwbAOwR+g5kWgfCRZPpPpr7h43xxT5PnfTGKekdtawC7gjGBQZNgf2DnnsU8mSVIEI+QLRBm4qhZirTN3QS6UWYztyemjhnUr7w5mtrKYj4WoGPQX+28dIZ9hRQizFgk7GgNZTsgClZkpYUWqE4ly5jnBGZEQp6CwwvaQ65/A/D2Z/SUt6h15abpU+Z0XZIvk2c+IiH3CgBHt7TwsYt27FxHsFX/nfFT0stQ6V3EdBRDvOEwsl19lszKjEg7RzHny5T6fX6wkpkIuF9tak3+Skp6HMA6BZzjCyK6cKd3Gu7P5ZsfDLORFeaJzPwHKA4M/noticA3Zmu6f5/PTcYfNn/BXebdUFxscRUWMhvTE3lWzwcqml/NbE+sR//UhyurZMPvc8XEDLzDqgylbgP4aJuWjT6SEgfFm90f5r6n1OgMmfOKbfjkWcm6Mh5031EJk55BGJZZsKZEV+wIxs/Vvmh+p1inam32/McXST0OYGKe9nxbknycGI/31rlfzCc0cjEwzv194L/bp8zuXFdUWReDcSLsS5v8s6IOTBIjJgzdF03uC4gf23zZF7PsPPTh0KjPC+7PAfcHAM6b+MDyK6prHFeAcTJKVBfIqpAdEEOqFyCWkRVCqrlMses+NbUmd5ESB6udqzHLAdfR+WyafCSCrpn+sPkBE6vMpFktHNmTAFwylJMM2N1LB/77dkyJmH1Q+IkIg//V1lz/j6GcY7UTU1uz583J0fR4wfKp3DUdeCVA1zu595pIcFxnLLeRv3eGzL+Abatw+ZokeWJ7oPGtXAdMmLW4btSo2iuY+VSbBk/JxNdXSffFkRD15TpocjS9XYrTs8HY0aa2WsGEwxMB9/x8B/Ub+ulWgMbbcVPMeEUYwtseaFia6xjvnOUbZwQetyuDBoPuigcaLq4Ug4YtIijaAmHikrlgGSxaWLEwJ9DbRf78rwXEqgLkSzC9REI+TmQ92tY85rNiP0P7tPolAE5tak3Nkow5NsWhjPPOWb5xISvphYrokRMCImbYfMFbx61wnX7nCZRZmx8PuCie6g+nHmFCK4BRdrcYVUgMiHDAhjog6haFBIq7DCAlfqu4Me7b6R3XMUNNCx4LuV70RsxJBPmUup0QmhEMc8vaCqVBl3DKnJyGxLxAw7v+uea+7OCnwNh4lT9lCXxfhqta8q2cBMOd62XIuo7B02HPSn6SgYt++q7r9nwdzx9OHsiC7rTNl5XwqSR5ZHtz44I8Fjf5W82Tma3rWHX2pm8t6teFIYNtzY3/y3eYf665dYb4YYC3sqe5KOpEwxGRJlqZ+57S27BDPv69fqmysdqq2HWSUqemYitegsrF45LsgPjD5t4M9qm+jgX5QjHPFw82PuuNmPsQLMNi/s+80OhP7Gqztmb364c8mNzNWUXtAPZWfkGnYwcARREgkiEqbAeEAXwMxj8J8q1Cf9TSwmIhzINsu0miqxMB1wXFOFcs5H6sqdWcICU/jCHFjq6FYVwhWbD6bNgxVlkzRxZxkfaQB5ONAB2qsCneSI5xHVesmkSJoOslbzh17EB5CBVf40Z9wjwAwONKprJKFSAAEDvU9b5vTsc+cIinAWwOcMwgcVFrwP2v3MKDjQzMkzJkXQ47Utj2M8fJxpmRUP3iRJ6OX1WF6xk0A2xTekfCQ5lePumR6Y0dudsrPTYTNe9lYJJNwe9g4Ja+etdZg7l6+CId4xncCpuKqTHxdTu/4zo/b5rdaGoPZvkI2B7/Y2Ja4O5yTb/vKCr7j/k7CkGApCzNuKGCYHiFOyP4fhu+3Y5d3vEsai/ySfPFxqnmkemejgmzFh80qrb2aQB7qDWEaP2iGZhkEZd3LcIvCPSSJH7JILxsWL3vRELj1rh+zMJtUz8FyKZYP7430ey6sLgi1/W3Ka0dTUKKJ+1cnMhyZcSACGlXDIii+0fxUkE4nTQdinbLGOiRJI4sdm2uRMg92xtJHUzAdEUG2eFagOQgPrXx46bW5fta7NgwEfC8mu/YptbUbhlp3oYi+wLn4QMWfHKi2fNUXkM6mmxmpps5pztZ0THBOCUedOetA+CNpn7dx/I+su++OkE4PhFwzxnsQF80NRWMmQCqbZlLwKckAp47EnkO8odTBzEjCvsy/rzV05fxxY6iHlQYrDALFphtdbfoX9RI3WfHriWBny12Re9y4Ikj1uuaMrvTK5zWIihMbMEki3ZuyVR+OyBMi5jwgEPIttZmz3+K0+looi23znglNdZ9goqd3PbmxgUDadD/YJ9hXykuWBn1ldAZQlXGOC7mTEL4jbqxG9fNCzS8q+LcMkOnG06eBAWL6gQccvwd7Fxbd8hhLUD6VzjGfAYgp5/yIQ8mG53VdIWUOAH2xFT0Arja0+m6+r48xmEw3LleBvJmMDfbNY8x428SfPi8kOe/uY4ZyLx1NRinAbYV23qPLBEoJO+0L2KeBebrbLq3NDFC8ZDnsbxiLZyaxoT7YFdmH8I/nVL8Ol6MdKwlQKkLFpFtKV/7UyybfyWQz57vl2IYprRPq1/iDZsnEXGbus+GiraYIsoqBoSekcK6PK8r7dpjhwDpZtCMYq8Or8rO77quXLRt6kA7CgoDleOCRazeBSsLMoSqLFhF2ob0zlm+MYC9lIzbQI8wxM2q2nfeNNdX/nDyaia6SsHpPUtHp/YB8PRIEyBD61jM5I2kjnBW0b/AOMkm8fE0WbRjPOhuySk+mMkXNmdkyHoPxM02tWWGwRdVwbVvPvHhDae3re5MvwrgdNvEB2F298qVuw8mPlpaWPiiqRsB/qMt90b4VJK1dyxPjQ8A8IVTpxHhftiXVvRDmXEcMFhK4nKG1a4d2yJAguEV7iylIsq2vn9IH5xyHoYxiZArRszPK7xE0XZAmMqiEvoXBPLFg65fqRAfM2ZyDaC+HhYxXTKQYlQZLS0kyaCzAXuEQaW4YGVt8CMUQmEl9CLlohNOh1+VXSHAD8SacietKQY9fdat6K9poeILnVT8F1fBQeiD0dTasamMpv4K0L423esSAs6K5alkDgC+OR2bIWreCcKBNrbje0Lw4W3NnjfziTVfJHUiyLoedgWaA71gPiMe9NxWiJh8K5q+nRjH2XRvb8mMY1L7VPcX+e7JH01fzuALbXyXnwghD4ivZW7ucsGwQMoKU9lQ9MgbTe2RAR60tYo48/w1yWFeqVgQ1wuwklVqYhpbxHOJklqYjMetLB02UKhMCcm61HYAKY6pos966htusaPJ2prdr3sjqYfoB+XeFIxxAhXhKmlPDIg0VK0ZFmsHhFmdTUYCt6lu4UcPG2N6I6lZBCVZvMYr6HkWynyTcK07lpTiLJvEh2TgdjjkT/KJj5YWFr5w6jQ4xDuAbeKDAdzoZNeu+cRHMJwe64uYCRDdapv4IHwsifeOhzwFfZhT2pLjyZ5K4gDwsJN798lXgCcYZsMfTd1ps/j40iAcMFhmsEqAKavOAwuomTzbXEfFuZtaOzb1RlIPEOMlW8UHABZ0O0YA1Wh4BMAyNf2uePFBpd0B4XuTY12TVIqP/mcUylOuM/iqtakts9YTNonLbRHSskKC0A0b0vCyyh2QoX+Hx9/BTgBq7EXCp21N7rfseJeGoDmKTr2jL9bhKfKbG84uWJyAenm1kAl7JoLuk/KtTHrD6W0Xbme+CMKNsCtAmfApwAfGg+4zIqHcKWN9keSEDMlFIEy28b0+7JT4WXvA8/dCf9DvXkDnqX6nDNziZJcvX7aYGTO5JkupCIOOtbHNllkkDhwotFXxSKHWeDOcfFhLCw950guG2WiOmj/xR5Mn+iKpJ6QUHwy4XNmd/ujDn77jehIjgIGc8/PVDIvFW2BhWTIB8sDO77qPUxkv8U17Ee+k+BJL++pc99jZeAOBwC8pbztZVSFp0e0o3KrwGkXIPLhkdHo3AA1Kbo/xiF0p8nf8R8PLDCxWYYuLjCh2fMzwCEJfHfGg52lfJPkngM5ScF9pJvw+Ncb1l3yTwPF3sHPpaPN8QF4Ee7I1fT3LzoYhf5tPFI1fwI7Gr9KXM/hc2BdobgF8STzgvnptPsh40HWtP5L8L4PuBVBfbJsYwFmJoPvG/AbpCneSUgkbXfsAIClJ/npewP0uNIVyw8LtzIt9kdTLAN4iwhIp6QsYMm1ArJSW7On/VESVNGQdLNFAguuYaT0Cb8jAegRs1QdzO2LUoMTu/kR87XDMfpX7efEmM44svq1SvB0QEhB2exAQ8/NjO9xH29YXmHZSuebDwFw7dz9WsVnvJvCeKq8hHBUSA2KDAGGCQ1k3oqEvBhFYWZyTAD1i17tsaSHpi6aeHEidW+xv9WcAHiniexu+MSAAMG6F+4Klo80dAEwo4mtoE8I6bbDqwFOiyV2XcfoewLaq4QCwgplPTgQ9D+U3ojvXy3yVmss2GtEMLGYhpw01UDIW9ESao+Y/JHOUge2KdHvdIJoeD7jig7YbWY8C2NnGd5oWAhPjzY1vYRhhWKQsBmQVxgCYBGASM/o1ryRIML7OwcVgkCSAGGCABmZJ+maMLAdrHB+PXe6+b0TJRykWQYGNTeDiuZhK2OyERZ9ZWSOkIB1mvpF7W6XjgMADpeheXNUbpb6qO6AwcUi2QtLwAln1hQhBBqtqjmLUXiLspuj2sl0ruxfY2reZnidw8QUI0fZFPuXwzoJ15wmUcXJvM4DXimEEEGhyPOhpzic+gmGu9UeS1wmmVxhsp/h4IsvOHROh/OJjSmt6nwxZb9q5gk/MzxvCsUsh4sMbNv2+OR2b5TumNeD6V9fKlXugP/PUkIWREBg/mPjwzU1ukRHWizaLj25iMbmt2f0KNCMWZvo/e43OchAgUJIxhkFF3AEhO93wmJgOa59Wv8SuCwbDXAVgrLILED5qa3a/Xoru1e4dmybml5UaLxUiQMgWFyx1BSC5OOtEuyq6vUVPHLFel61Gs0V/U2TIjTgBMuTsG5HQuM7Js81DjCr+Gxhbr8UpepnwR1nddeW8yRt05zVSIx3jMzDvAmhLO41UMM6LB123DObW5I2YZ5OUV8G+StEM8HUdY90XDeavHAynx2Zg3QliHxyizxdJXdVb58oZnDjwUR/hjZjPA/wXAmrW4u7ehJX1tU0d82ne9xru2JmJHiW2rSDj1/2uKR5seE6b4COalxKBhvvK6YamzOnagBzWFgLWWBCNYcY6BOEGpMEkXKssPHQxqIchU4KwApI+lRCfrOzp+t9gk7IlpJLqaAwUNwbErh0QwgMxm8eCHnSsZ8BQ+IT8bIm78hMAlNUEqRQBArZDgCjMgjXEhepgmKsybCpJKMKgN+1+nT2u+v9Ud5kSxY5TZGwVDLMxEKNXjDdX9lmwimIoz5vm+so7Z/kB5HQsWMPMNQ9LxhntQfeH+Tvw0voMVV8D4CTY6bXBeN0QdERr0PWv/Mcx+aLmnwA+3cZ3l5RMR7aH3O2DHegPJw/sIzlrlSJhVQB+X92Zava3pafGmhreyfXbRNB195ToitdIOmZhTQImCQ9ZNV1HFyIqAREnBRVG85Ah0G/iAdfj2v4e0WTJkCfbFcC4monZyCC5A5PYkwg/h6QdQbwlkK3rH37EN/NHv3sFAau4vfPXUzCo/5+p3+13VG2t9EdS/2TiVwjiJc5Yz8SnNn686rUNiA0ZKlywiheLxyqLaX5XNPVUSeNcu9+/0zA2kAq9tJnp+VJ+XJLEAlJoAFVKDAgU7k7Yc42hfYa9SG8uVN0f8VK7X2Z9p1mXUdOxHX3Wig0AfFqsT7DcP4yirdQnpo75tKl1+XgJx9MF7IR8KBint4Xcgwbc+MPJ/TOC7gFjMzsNEyZcue4K1+WFuGb4W9NHcX9hQbuE0ZuGwcF4s/s/BQijixn4Pa1uACDaXlrydW8kdVYi4LotlyHWHhj9djDMu2dgXgLg/EH6jWTwJYlm91Ugd/4do7DpZ/DstdpdWXssAo6IBV2J4WxZl0kRt3LnslhT4yK7L+qNmHsCPC0DMwSIsfS1miieDhIMbAem7Rh8DBwCvkjqQwaeIuKnnJIWZIT0qyqcDGYqhqgjhrCpF7dGQvWLbf9GpdxAZbI3yfxCKT+uKu55O0PVA9K4+GQqJgbEhiB0SQ5l38oQU/w6wFuqsoSJee/i7hrkZ+IDy10Zws2qBJ8wnBsVT4Dw8HfBWpW25jGfTZ5t7mU4OQFgdRkwuhh8ZV+d+/rBMnNMSSxrEJmqa5hxYlGCoAqfPt9n4IhEwP1qwQO9pFeIuBPFzxy1usWIOz2dDaflrAI/wCEPJhudUXMW+oOE8zwuagDc4ouaE6jNPCbW5Fq+uuMiIeoDcIm/Lf0QW9bNOWJcTCY6LBFwD1pN2h9NHsfMt9m0OvStJAMdFw+65mrbe6TDzznZfZWdV/RFkr8C6P+gODtQDrYkYEswnZghKN2Zb7kM1FKEK9i2AyLEnSXpgSw2UDizdc0Luj8u5RcWCY3r9EVSHwPYXMX5jSIKEAnBpEyRV/gOCEkaWtvyJuocV2jfPjLf8UVTCyDxbwaWCfAyBlZ80zAGOr5zPyRSfSv79x6dgt0gMiDgEQY5LXA9WNQKljUg0QBwvQRvBKYNCNgKwC5Q6GLPQm4MoCixU9y/2DpyBAjQ744VDPMBWUrdtEodhwyIZgrK/GGw7FbfTNQZutvmXQ8G4fbu7pXnrGlQUyLU8J43mgoQox397k0q6GbgpETANWvQ9gt37AyiVgA/WoPze2HJXX2RjsPiwcZncx0Ua2p4B8z7+VpTQWK6dJVMWS/D4sMTh7o/GvRCkeSFzHQ57E2CxEQ4NR5wzdTG90iHPpNZx7TIVHtWzSZH09sZbN1ic2rpkvHsvhAowva/IEmsPpXbsvam+tLsFBA8Coe7/5TKtfB7s+o7IDUCpHJcsGRFZ8Gioc7TROPUPjt+AsZPvr7R769XW/KHndJZ9cM8jFJiIOiM+8/BX2dstNFMkRhTxLONrB2Qb1c+aCWA47zRVIwYBxqC/9I6mLsQ+nc9jL7q6xh8vK27HsCXAI6JB9yPru0JEgH3495oagoxoij2TgjhnyREKJ4nVuNb8WHOAMlbsRbBoAzaEKCnvBHz/ETQ9cc8AwrHgXBLC0cXbpc6gCE2Sa3TcN9ggfAtLSwWbm/+CYzTbJ/rmc6LBV23aON7xNMJtia3T3V9ofpC4xewo3FZ6mxm2QJQ9Uhp4K3fBz1bjLmYIWyYBF4qlaHOhBpVVybgw/LQ+kXzZ/8BxXTBIgIr3BWs8CxYQ85GNw6aAjuiKFqxRmLIcnfEVpqtKRFwz0eBFXe9rckDqI/uZvCm9o6PFIWBE3O5Hq2pCGlqTe0vJR5BsdIrEu7r7l55ymC7MhPnc3V1d/omMB8/xAULg8DXeSOpn61cufLYfNcdKNb1RCEnPf4Odi4cY94HxrQS9POWWMh13Ugax1iARk5ZvUInUvQQuDkealyo+lr+NnMMf2XGmOiXI62dP924OIENgkCq17iJFaXULOjarKwApwR9WibdQVmQsJCsY0C+feMqs2AN9cTr6Nmn0EUJdhXxbBbKXIE4Sn0DEx9Y7qqucV4HycfB3tZKgXFqLOQatNbFxPlcXdWVnkZZa8H3s8l8n7Zm9+v+uebe7ODHh+hC1gnGyfGge9D7mxTu3tDRZbYC2KOIg86ho2pGbdPcmmxqbfb8ZyjnmjBrcd3SGrMVjF+X4IO+LhHwXKaHNi0+BMMfC3meUH2t5tbkjyyL5wP48Uhs63WXFGccl0zKd0CkId8qXZ+kGlXPJ0Cd5fHh8VJVkTyGs4g7IAyVasaGSuikLi5hiN4oDNTpjCgF98O6Io4CZZ+GV5Ty4v5w8sDqasc/+lft7RMfxLTAYmvHeGhw494bTf26usv8J4HvhYPe80VSp2IQx+TYoa73ZcaxF4CFa2f809sG0W6F3J8/bO5tUObvxRQfqzTUTpak172tyQPW+h23mWNG1dY+DbJffAD4SyLgOReakU6SwJNiIfdjqi/U1NqxqSXpxZEqPgBg+TpfFm0HRLnhZtHHpZt8WZlbnoTsKovOICip6tR9li5EaIfIYRqanUiMEeN+WmZqZnhXQl9bJsxaXOeNmHcy0eMANrHrugz0AHT2Tu81HDAvNPqTfMcGw6nR/kjqr8R4DN9k8aBaADf5ImZi4gPL826VtU+t+8LJrj0BvncN7/F2d2fDHq2BQWqPAPCFkycx8dMEpQX8RpOkR7zh1Bq7TnnnLN+YJb+gRBwV0I7xgOs0PQqN9EEYHxlEv4gHPU+rvlQwvMLNUjwCYP2R3OS9HcXZuGD1HsyyGq5PStVODFKWfpyYykKAsGRljqCGxUXMgqXUnauiBQgNNR6XtAApvKmKJ6q5AuqAlESA1NWOuoRgu8vVQmGI3eJB1/UDsQs58UdMb4bwHgNH5Oglk6trHK/455p5651EQrQyHvQcQ0QzAHQPcn8pAocSQfdJg6XYnTifq33R5N0guhXqsm6tShUR7u8vGlig+AintyWn429gbFOCae/en77r+m1ZZIEp1Ydt6TogALc5JXYvRMwP/VJMGTLmrJIVbsRS4zaKM68o3gEh8JcD6cVLhcLUqeVhfJBQt0shqqCzYH37qajsS0P9Dh3QFDaNFDcXtN4BybHa8J6Nl7MIdI2TXXvEBskiFQyvcPsiqfsYHAew7iDychs2+FVfJDVxsBuIBVx/tUjsDsI/V2+74BVD8C6xoCcy2Lkmhbs3rO4ynwPTMTa/tldlVfaNQg5sak39nEg+D8bGJVhCuH/nd93HDSYyNcOaNBEfHw96miMh9wo7LuiNpmcAmKibHsiki7MDQooFCIO+LK11jl51z8ajykKAKMwtlSniDggRKnoHhCHL2MinXmgKfJGcLaJxrwXI6kgEXPcDCNtwqf8S0/hY0HX+YCtd/nDywIww/gHgyDU4vwfAPF/EHDTOYF6g4V2n7N2dgZtWUaZZAJelxrp+WUigd1OruZeyeI/8o9vrTrYmtnvHpgc71B9OHSQlngKKms+6wNvEXKd0HaXFxwgev4G5Muv4SSzgucuuawbDnesR+I+69fuprhNFmVdscMFKldY4V2eYUb+7cBnYnsVLK/oD48WqmCxYyr0UCORUOKYOMQide/SoWPCbXFnENzcy64AUsNzA3bMWHz2qtnZrADsr0ZGgu7mq96zBjOYJsxbXjaqtvZaBk9ay9ogB8DW+aGozp3SdGgnlLm4WCY3rBHCav63jXljiSIvk/e2BxoKysPjCyZOk5BvJHperVXk1k+GJ8emjB52s/ZHUdAZmAnDa3qeYWlNjGw5/dj+yoBmJ0uM5KYxL25sbnrf7yn1kXUDAaP0O+sl0U4W4/3FJBQiD1bl/ERrKoYUly7GqNrKMCnHBYlYX6/NNOwO1ymqNDzEGhJh7QNojuMAxoWgChAmy3L+Qkm3bPXHEel1TZnceJJzWcyhixhgCfw6mY+Mh16AZb5pazb2k5PsAbFmEnnNSBulxE+fz9EcPzr+yFWtqXATgzEJO21/fI3VLCVyuAMZTTvT649PHDZrS0RdOncbADShB4mkC2sd2NEyNhygLzdeDz0gY8RmMJ6Qhr2lvblxQihsIhtNjM5DH6h73LVW1okJiQEq8AwLuVVZvl2njcugLAlhHlQ3UZ9UW79QKXcX6670onwNry3U8YKIeLT8K/F6omDsg5Z+Gt6R+g+3T6pc0tS4/QErH8/gm09SQeKCvD797ZLq7YzCjvqo79Qcp+UwU0z+TuLm6Kz0mGF7hi4RGD3ly+7a+B+1RglGjtbe+YXp8EDEFZvJF01cAfEGJTND5PfWu0J1Byujha8SwHIQHKEu3xg51vV/KG8mQPBXAKFt7POMtCHzAjA4BSjG4AUQOgN2QXA0SHoA9IIwBYz3YvCOZ7SmOVc2kNo0Eg0q8A6KyVoe9BX1zIUHrK6t1UiEuWEzqd0CgUoAMcSGAwN3QOVEK7S3aBctO2prHfDY5nPyVIei5IQQtL2WmExMhV2ywA33hjp3RmbofRNsr6kDjM2Q8O2V250Ht0+qXrO1ZmlrNvSyZiUJtit1cQuoeJ7tOiB+c350pGGYjG03dzqBSrQA/6elyNd8X0kFuI4AUCI9JSbOr0fBYJFjS7EXfiG9EzSNtulofgW4gkbm5rXnMZ4X+qKWFxZs/7l7PMDI/YaI9AfgA/EzppFJDxakDIolYaSK7Yq42ro0AwTKFZtlm5fDREmMbVbano6qoKUtZmQsTbNkBqSlXNcZEX47cfJRrvChRzDFJC5BCmBfy/Nc3p2MfOMTTAH60hr271Qk6KRJqWDbYRLxo2/RZTPwHQHle6p0Np3wiGE7ttzZZeEoY7wEC/zHW7D53sLXHGTO5JonUHIB8pZnYaEG2ttN3X9CtA9yGJ53E9LoU/BKxfGrcCs/f7jyhvHa5mtrMPaQ9dYxeM4iOXJt0wgMJGb4Y+O8ZAJd7w8kAET2gahy0eiomBqS0E7TCKuEAxk2Z07VB+9S6L0r1eC0tLBaS+RNV58/2ckUkG2GCcgHCal2whtRJBfgz1jsghb7J4sWAMGS5t3rZpG6LT238eFK4ex+DMk8RUMigtYIZpyZCrtmDHeids3zjRUb6r0y8n31KlnfMEOaC+deFOhKUNN6jfxHooljQc9VgBwbDK9xJSiUA2rdE3eXFrp7uyU+ENuiGJsekR+VWBaUPQBf6M7+l0V8kKUXMXZLoCyIsIUmfEPjfWeDf1XD9N19Ch7JoY4mQDR/lLVXsOrOYOz6JkCfqj6Y2YMaflUwq1cXZAbEhjqmk/YsNYylJhTa0Ye0KoL1Uz/ePHVKbQZIy90SjpshpeBWNl3bEgEClABmiepAQnxMqZgskia8DJwgp8EA9HaY0aHUpcrkTnGNhjNAF5Bq3uRv0Q88NCeuDYj2IACyVrW7JoY/zZZU7+uHQqM+D4fQ+fZAxIuyV71CZdZxQyOqON5z8DRHdxuBG2x+IsKJQ8TEp3L2h0WlGQfTzEjS9BeaT4yHPnYOLj871MmQ9CjXZywpR9a9wdd/BTwTX64KmpPYTGE+A8DcCvS2BZcKiDkvSCouz3wy6u33gTg3XtMgM/FrxJf6QCLovVSISZO+9Gaq+Fgp2QbJ9RYoBgfLcOSUVIEYGy1hhhQgSvHspBUhW0t4q358jWyFZsFDhMSBDfn7rM1JX8aEPoBdB+JCk/KQ/roo6iaTJQIohOollLzk4K5jSAGD1sczI/vgv5yjmuL8xOUynaEtl7I3goad+LrviNZFQw7KJ8/lX1d3mXWAc/r0JaTGYT0+EPA8NbiivcGfIuBnAYSUyTuauu9x1RCHHfh3vQSWI92CgB0zTEiH34PEzc5NbZMh6AmvqJlc8/l4F66BIAfVINMr7zR2JkPukwY57ZJg+/yEPJhtR2E7t2jInrkh89I+z4zp94eQHKmLhpFEZLlhcYhesrr6uT0bV1jIUWQnEOAjAxaV6PgL2V3n+nixXRBYsMNshDso2CL1aiv9l1I0IL8SDrgP0jLxaiaA0C5Y0rCELEFGOzfbowdQbD7iPAOMIDGyJEfjubB9vW4j48EbMX2aEsbBU4oNA1yQCrmmF+Kz7o8kTpeRnSiE++tuWJhQSvO9v69iJDXqxhOLjrUwfTyhGdjFNEYY20GMj+fmdVfRzheNnysniNPUDFX2q4rSGtbI4QeisOg2vKGna7ieOWK8LoM8VXmKXptblG5XsAUmtAHHUFNW6shR+Z3U2tHVZ1H1Z/WKHewWA/6lZRMCGejYuQZ8GQJKGpwD5mnjIfb+TsYUka+dY0HPcI9M9edPrHn8HO30R80oCLwCXJAuIBeaTY0HX+YO5Xk2cz9X+SPIuZroNpQk2/5wM8ctE0PXCYMdOaU3vw5Z4rkQiCQD/w8rQhMHev2aVD1txFWmL8a8R3sR7KPw47xssqUaRvislWaCKtQMy3GNABlCZRpqkdPhL8VC+cPJnQ8hqWZgAKeYOiMqikIwxaj9jpoF028oUVBFu8g01QyV+7J2zvCxq3pQbDLVJGgg0ZLtVlHsjRkLuFe2B0W8PdlxTa8emS0ebLw7UozBKcKsrAD44HvLcNtiBwXDnetVd5oKSpa8l/DPLcs9YU8M7g4qPsDlFSOsxAO5S3SsZxgHzprm+0kNK+ZDpy3w5ohuA1LlfMVOrTTK1vIP8lSdxKX2efAYrrmPDx5Xm+yDl6am7M8UTIEwKM+wR1lHZDsFI5zpQWOuHirATSYw3lbWuw/kbPSOvFqXjm2Q5vHdACsUbNSdLKd4EsHtpbBF62xC8WzzoeWJQgz6a3DVD8nUAvyjJhMd4hQT9cl5o9CeDHesLmzMEcStApQlwI7wvyPGrWFPDUj2WlBVdjx42xhzRLcDYUtknWtW70KbBoG6E9+OSCxBB+KfiQXQHb8T8pZ3PFAxzFYCpqq/jHFU8ASIkVNYVWi8YVpduIAv+cfl/avSGsjODT1bZvnp8y9Hugka2ABm/gB3eaPJaYk4AGF0aOwRzu1Z279na7PnPoEIpnJomGM8DvFGJ7vURWdv1q1iTa/mg9xoxzwbxvShVogLCR1np3L+tue5LPY6UHUt0Eyir/5FqtyvJQhn7jQPqY0C4DAQIEV5Tfg3m8+18pj5KTwfUrvoDgLOoOyCsssZQlTRSmyr8UHZR+p0UwRWypy/7EqBM5G2eJTOop6Tvj2+Kd3iLkGK7YgVIU+vyjdzLzGeJ6RygJFVuLAadkwi4pvUHE+YmGGbDF0leQ4QHS7WbQOCZqXVcvnmTB6mdwUy+SPIaAl9XonYFCB9b0tr/4dCoz/UwUrpJIw8jfPeDCYBHUd+3McMbbT6C+zDKwQVrZa3rLQC9isfTg32RjvF2PE8wzFVEfKkd1+rsK2YMiFC5A4KsBWUigSUml/uQObBj/pzCseKy8QvYAc0quhRKY0CYMOTSFhUrQCQbLYPUClHJchZ8UCLo+uNgwebB8Ap3BmY7QOeWrrXoqljAfcyz+1HerC/jF7DDF03dXdJ7JXxqSd6/EBcxTckY0WmQg5FldVDkc82szpf7u+PS0nqAR3gGmdLHwDx6MPUy4y31ak5cb4eBlhXmcXYlgHE2yCIWIlS6AwIiTFRx3inh1JYgKC6wXLRYrHnq+je2blxunqCnZvvGNyqC11HFChCWxp8AZEpw6YXIyl0TzZ6nBjvQP9fcuo+MV0A4uFQ6DcDv4kHXhYMJpRkzucbzlRkF6OgSvtYvpMT+80Ke/+rBo6zpHNmP71Dmb0xAvR1PkEX13ijVDmfBNoXiNLyMbDk8pyC8rPwihF3cy81LVF7CN6djM2ZcYVe7VfdWSBasfqZOmdO1QdH7jsClUJx0h4rkCmkxP6x0vGBc0dTatX6pv2d/1Dx6yuzOdctgaFG8wMJDzj5WsQIkEWp4jwnX2npRwmyrpmuv+NTGjwfthOHUQWzwq6S2WFk+ekE8NR50/2WwA4PhFe5kfeoxAN4SvtIlBtGv2kPuD7V9X/aM8EKQWZUDe70v1uFRbtwLHKS7MZdHFjDmR22ZvhgXqnLFCobZgEPMgo3ZElM9xdsBYSkUL2ZSrTCsm4pq6IaT+4NLU+tsbZgX8vwXjNcVXsItZfa2ARdZ25k821zHF0nFmfke4bQenjBrcUmTfNhQaHWLEStAACA1xtUC4AUbLpVhwpnxgHv6oDEU6A/gZsLDUOUnPjgmMR8cD3jCgx04ZXbnuhkyFgC0bwlf5TKLxK9aA66RXluieIOPSv954hEuQMb2QWGJWWlBaWzGjJlcA8b0cm9l5T7M5VEHBD317udtEvUOQMS84c4diiygqI/MPwOwNdtWdaOspB0QgLjZH039thinampdvhET3Q8bdjGZRBG/Q7pV8e16fRHzd3Z/w97W5AGGkxfh20XcXWtrax8qaVwKqR0/Aexw/B08JJfhihYgz+5H2Sw7p0JtVp7/CYF9EgH3DYVM7L5oatZAAHdJ0sIxsFiSHB8LeZ4ZVLGHk5sLp/UigJ+W8DUuJ0MeOC/Q8K6WDRUibph6RvLzR0LUB0BZUUwhDaVZbVIN5jGwIUtReRk+q2ln9RN0QTx6MPUC/KRNl/MQWY9PiXb8tFiDga/VvImA39rdbjUr1y/eDogdAgQAM/7sDaemDeUcU+Z0bSAt41EAG9jU1EX7TpxoeAjAcqV3S7huSticYkfDTEksa/BGUn8mSY9//30QcEjjV+mbSzZ+ql9gqf9qnfSQSl9UfB2Qh0OjPicmPwM9xe/HHMv08U/bmt2vFDIoJOvN58A4vITN8YFD8F7tgcZBgxq94c4dDKK/AcrqGRRCUgieEGtqXKTN+spBAH26FbBY4bknqjqxvy09jhl/qAihC9VZXFiWz7NSwsbLrS9YvOANJwNDMr5md67rj6ZawTilFG1W14UiBqGrW1D4HgYRHvBFUn9Ym9Vjb8T8pXBkXwbR9vZ1zuJ9J5EQrSTwTMV37BTEYW84qbRAoT9iekWm6l0CfpfLlmbwCd5I8rwSjSrKd3ilHFqh02FRiDAWcr0M5hkonltEL4DfxQLu5kemewYdmLzR1B7CkX0dJSqEOMDfyRB7F1KPxB829yayngNQyoAtE4xftzV73oSmwqARL0AIUBerRHyQiiDG4+9gJ1v8EDD09Im2CF3VLlgSZSNAqri3DfbGVtURUcQXNqOTwt1rlA1txkyu8UeTxwmn9S6D/KVqsyXrFtENkhWvyv9g+MDFS0en3vCGTX9LCw9qh/nmJrfwRZN3E/hZqKtBlOtui/qdZFn+RcWC8feoJqI5vkjqhsnzvhhVzBNPjqa384WTMQbHwdh48OajK31R01eCEdQOF9PDvK3JA9bkB+MXsKM/C2OpiswpIBHyPOQPJzdnoquGeKoPheDfFGoY+6PmkZL5dgA1JXz8J5zc2xxpGjdodiJ/xJzE4IcAjCrh/XYyaGIi5HoNGiUYEiQVeQfb5a5QzjDoXYBVbfPXCad1EfpX1orCxPlcvbTLnAVgfMW0seIdChLq4njWlEhoXKc/knyIQcfaa1xyswOZyd5IKkKQd/fWeV7udwn7odHQuCy9GwjeJMxjwFRyF776zuK9P2HwV1LaHbtMOxBx28LtzU99kVScgFeZ8YEh0JGBVWtIYwNJvAuBJgLYE1yaBeNi70TOC43+xBdJ3mRDun8CcLrRUzfJG05ekAi6WwfLBpqPKa3pfYSU54DlISBak84iwPyAL9yxdzzUuNA2+UGQrH6EM0jSw75I6lqyxJweV/1/9ngNmTe37hrLVbyOwdmxRMaPwNgakFsz0U/wlblFhqoNbzS117Aq3BILea72RpOjB4oTrs2HNrevN3vCQNGcvATDbGSEeS0zn1nKXJYMPFjFrqMH/NLzr6KEU4czSljdvJ8uKcQh7c0NL2mZULFoAcLyzTWbg9aY3/ojqZdiQffcoZ6oqXX5RtyZepCJ9qmkNibFEyhLIcvqeQXdwxLHluDSVQRMB8T0qi6zxxdJvUngJQx0gDEaROPwlbkDExrKqb0aO4onQAzL85lFZg+VYiGxfxX9VAZOBQEWAwIGmAAqg0zZpCLhhoOvQpaOhj2xaFsSUcQXSb2DcOoOmTUi7dPqB48bZiZfJLULgQ5hgg9SDiVuqg5CtDe1du3R1lz3pU2vzq4kG9UALmFDXlLdZWLhdgOuVfy19uLV9iRiHDjsKkcmmt3n+aNpF4PXoCgNryTCafGA565Cjj7kwWRjhsy5YEwo8cjwp0Sz6+xCVL03mjoDjOtR2tz/3YCc1N7sfl7b8IpHHgEmZcabdsGqgvFcBpIVfk+Cgb96I+ZGqXUabhysiGiORZKqPjKPlRJXguxLj1o8gQCpcrQqlyD0r2lrdr/ii6T+DmDXEhqbNQD2/Kb0QxlXinl/6+IZxpEQWf6I+T6Dd9Szx/f1UfG/k7i/MekLpy4H4UYbVzS2B/AX4bT+7IukFoHodQb/SzCWAtzHBIKk9SGwOTE2l1FzdxCtV8RMBxtLzsaDYR4fCdFK9e+tTNKM534fGw+/0vVEvFMLn/zWdmlBKCBAhvBPlo7fxIP1/yjk9P656W3YkAkAW5V2TKBz4gHX9QWp+Gj6CjBfUOJhbCWAKfFg47N6SFePkJDqsqFrF6xIqGGZL2y+DeKdVOocAl/nWZY60hdO3S0MR7iQ1bMpYfPHBmQgQ+kTCdioYg0fglKnGFlmAqT/men/iLldj2CDM3ZZ0VfmXwagBcj3TSRFsVjJsa5bPF+ZUwHsYff0COCnYP4p4etF+YHV+YF/ULiytHsfmfeCedpQ3MEKpKwFCDNv6BiOH0xLC0kwn+CPmp0MnJFr/gHhL07puqBQNdofPyEfBOAq4eP1EjAjFnQN6poRDLPRF03fBgwtU0ER1FKPYHhjIc/Teji3y5BhqWwILZMK0mUwM0cB7KT+OrQ9gBulzN7oi6S+APAOgT9nIpOYugAYEuwmYFMQtgfzxoxvp9aKFdHEUmVNMUNy2QmQRHPDw76I+SYIu+gPLD/bvQeOFPeUjwI4Qbfs98cfNQLk2f0o2xxNHW4x3gJQN3KaE4f6oua/4sBlSm0AyVKxm/BQ28Elhu9bJo4F3WcCdN5qlOB/icX+8YD79ELFhy9insvgRInFRxKQBxXiFz5xPldnKBWmMhAfIPhiIc+T0NhoG6uzPkmwFiAAYPGcElj5GwCYwKCjwDiNwRcy+DwCTgQwsZCsLBUjohVnqbJEGQppImZBLfrjGpyW3xf32+upa3gMwArdst83FNUJ9daA+wMGnzUCm/X3Q02DPfg8XfYLhaPEcH/L8aDrWiYcQuDPAWQIuMHJvTvGQg3PFfL7YJirfNHUTICvQWnTFn9ikdi7EBemiQ8sd9V0ph8FqKnEzd8LQnMi4H5cD+M2G28K3UskCy1AAMQP9XwE4CndEqr6sNogcWLZW47PnQi45jHwiO4Bg4u1Yp5uIPvXLN2w3/sOWe13mAi47wS4bcT1XqJ7veH0tqouYPWJ5wB0lm8LjAABMtDBH++pc2/hZGOTWNB9ZiQ0rqCXMnm2uU6GzKfAmFHimXhRlp17FlIt3N+WHldd7XiGifcrcbP3ESiQCLjn6yHcfqRQt2pF2gVrVW7QTaAG1UHixEZvuT47ZeUpALp1L8g9Kyox2ti6ATrL3/cNRbWuikRs1XQfDsbrI6xlG0CydeIDy5V41cyb5vqKiW8r4y94ZAgQoH91IxKqL7h6sTec3tZw8qsAflnil/RUb19mn4dDoz4f7FDfnI7NWMoXAPysDMRHKBZ0PaxH79JgWA6Fk0aZZ9ewkXjA9RgAXc9GDUr7GRmybAVIfGrjxwz6ve4C9gqQeaHRnxBY74J8V6krj5WaN3mDbpk1JoPw8cjSdti6ptqpbLFYCOOPZbyQMXIEyJrgjaZ+TSRfAvCjEvfO+51wHVJIXZLJ0fR25KAX+wu+lJQMMx0aC7oSuieV0HIzFMYmCL0D8u03SiyFOEc3hAoTk5UKhEwZ74AAwE/fbfgTGHoH2UYBAgAwjIugY0FW0R+w5Ttpn1a/hKU4BEDHCGnaXmaeptJWijU1LCXgjjJ9/hotQL6HL5w6hRgPA6XNm0+gK+PNriMLKTDoD5u/MFg+z6ANS9x8WWaelgi5YronlRbDUumCpYPQvzNxNjc8D8L9uiWK3tOU5sqvgixrV5uWFpJO4PAKXhVWabgqEyCxpoalDDpbf3/2fIerkgg1vAfmA0eAAExJIScmQp6HlL894biOgZ4ybINqLUC+Gc6YfBHzShD+gtJWCreI+KRY0HVRIUF2vkhqIhM/BWB0qcUHiKcnQp6o7kylR+ogdFvJ9PJpAL7QLVHMPsxKJ80+afWWextEQu4VErIJgFlJ745BdwHwV6IAAYBE0DUToEj5NzQtYuBIAMsUXsRWF554yPOGJHkAgOXDdGj7ggy5b3tz4wI7LtbWXPclgW8pw3ao0gIE/fUyfK3p24FSF+tDNxP5YwHP7YUc7I+kpgNIABhV4vu2QDgiHvCEdW8qDwyFQehc5gWOSsEj0z0dUoipADLlfq8DGQHL3vhmEkpXXmtgdFZC32oPNL4lBB0MoKv8hQd6CDgsEXQdj6z8Z6UKEACQVb3HAPh3uepzgK5Kjm3YNRF0zwKgUCzZtwOyap8nS/wSwH+H0zzBjFey7Nw91tS4yM7rOpmuRBm6tmkBAqCP0keA+fgS38YyJuyfCLjmFSQ+oqnfcX/KQGcZiI8Z8YB7ju5J5YOl64DYbyg2NzzP4FPL2qYHXelg948AKvtq2w5IlYYPA65UpfSttmbX34h5Cso7M9YSwbR/LOh+sH8MUifwGOqr2Ld7x6YNwmQAS8vOZAGmx4OuC5/dj7IAQESvqWtrXlmKh4wd2vBPmTF+geGS5IPozr561/hCEgoVm0jIvQJMZ2oBUoYIA+0AlpTwFj6UjD0TAferhRzsi6T+wIw/l8H7kwwcHQ+4H9C9qMwsTYWZqnQMSG4SQc8dAF9YhreWZCJvLOi6KBKiPiL5TNn3YbU7IOlIiCpqJy8W8jwD5n0A+qwMX9Yii63dYyHXy1//U9bTkK7077k14P4AzAcDKJdnSbPgQ35QjFjiI3XjPZVM9LZPq1/i6XTtC8JtFdyNloEwLR5wnTBQa6YkxEOu+whcVvG5WoAAiDW5lgM4CvZXNQaAV50s9mwPuT8c7MBgmA1vJHUbgIvLoNkkg44d2P7VlBkkHcoGOl0HZJCBPui5ipjOLdF4shoxin9Jxm6r7q5KFm+XvQDps9QJEEKqIvtWyPOGk8VuAF4uo9Em0t3Tvde80OhPVv3XAWMrq+b1MdvZ5kJgAkofGL1MEu+faPb8oPgpGcZH6sYPubKUD33fUdQTD7hPBvFvUHlxIQ9YGdq2XDxErKrMkQQqm7FfC5BvjAb3owS6ytZhG2i3arr2j4QaBg0gmzifqzOUnkPAieVgGzDohP5APU054hCWsgBeyzC0ABlsUSPkuo4gAyix3z4Dj5FD/uL7CxxV3PM2yjyWxykc6tpOUsVm2YmE6hePW+HaF+ALS5zdJkPMF8QDDb954oj1crwrVhQTRdLOB21rdr9Chth3IH6qFDPuO5KxZ3vA8/fV3l/TqMWqxB4TlUXsUTzgCZMhtgVhdgV8pq8BfEA86D583jTXV+VyU+3esWkrIyYA/A8tQMrNaAg0XAzCQ7aMJ8DtDnY1zZu8waDbm8Hw0vrqTvNhgIPlIT74pETQdbfuMeVLNpNVZpg4dCHCwsaTYGMbWbQLM14phXEI0Hk/fdd1SNzfmPyhETuuE+D3yrsF65YpE0mE9yu5b915AmXiQc9VDsKOAJ4swTTwD0lyj1jIc3X+bI2karHC9t3FWFPDOzCMXYhpga0tDTzY3dPz87xeEv3vQEmQsWD+smzG1KaGpfGAe7oUYl9m/K38vkz+B4F88YDr5/Gg5+lyHDvap9UvyfRhXwClKxTN/A6YjtIC5HsfsSftmqG4YzPAFyaC7pMK8UGePNtcJ4PqZ0A4oDzEB07p93PXlDNVRpW6HRAdA1L4hHmo6/3UWNcvAfwOgF0rYU9bJH4aD7qubWnJvVLMoOfLue0GxkdF8Q7lsQI4VFoD7g/iQfcEYtpzwKBQbZgvJcJpTnbv2h5ofKuQ4WK4CJCvDWAHGg5k8EVQnxDgEyaakgi6D8u9w/QdUa1EgFigsstE1d7c8Hwi5N4bwMEDAryU7q6SgUeIMXHnd907x4KuRCElFErJI9M9HfGAawqYT4aN2bGIaQETDokH3TvGQ677tAD5HvcdRT3ZDE8GsFDB6ftAOCIe9BTk6tXUunwjo4qfB2G3chAfAE5LBN236l5S/tR11acB/E/JICK1AFkTnt2PsvGg+y9OtrYk5otVuHH0u+JwG7EYHw+6D5gXaHh3sN8IQ9wOIFnObUfEV6DYft+M160M3Tac+lgs5Ho5HnRPJktsB+ByAB8U+RLvATjDyb1bxALumwopkDvAsNkBWVUYJ4KeKy3m7Rl4EECxC1r+B8wnezpdPy40KyYAsCx6jEoWhPsLiU8tFfGg+9F40D3BINqWwH9UNeflek9MdLUheKtE0D0pFnI/lm/BpxwH13jIc5uVoa0HxgwVQsQC8BaAywyibWIh1/6JgHv+1wKNtHmweoLh9NiMkM+BsU2RTmkC3FTotlxzNLWVxXgSwKZl0iRnxIPuG3XPqBxaWlj8Y4fUZpakHxO4HiQaWErH6mdz6hTU76/NoE4WA77bTOmvBYchyASx1V3r/ryU2TwqnePvYOeSMeaBgnGAZPyCCD8CMK7An3cNGOTLCfyxJPqHYHq9a2X3goJWSX8wzrGRkanNSIhxUmAdwbJmsN9IEj2ggcDUgf4hDDANiJnlo92ffJ0etFj45nRsxk6xrWA0guCRzPUCwgXAyH+vYCGxAgLLGVhhgT6Y11z/XrmvUBalzcIdO4PELwHsDmAPAFutwc+XA1gI8NOS8GSu2INB7yGSWgxgXQWPl4oH3Z7ysBU618uK7GRm/BygnzDwIwLWW5NnAegtJrwCcDzR7HptbfpnU2vX+oRMrZUBQcDTv8hATgtc3/+titqvv28mECS+035MIiMgOyWJHpLWp731nn9W3DjfX1B6NxB+TUz7SeJfEFBTpLNbYCwCYT5YtsZDjQuH03gxYybXJBtSUwDygrE7gC3XoOFXArQYoP8y+H3B9AEgFzrQ91q/u28ODaTNgdxMmdO1gXBmnwdjiyFKzc8kZQ9pD4wuKPuAv61jJ7bE44oG7rW5/7PjQdf1ukdoNGqYPO+LUVhZsw7BUSsg679jRAuZkbJm+TpdtcvvO4p6dGtp1s5Q5qo+a8W6wnBuxALrEksnE4gANxhJBlJgSpKDPhrIDDl0ERRJfQ5gAwWPk4wH3Y1l3NYGYLqlwR4GPFmwW7DhZikdMJAkCWZ2LOUslrZPrVs6EgRxKRi/gB2NSzq3gmFtz6AdAN4OoO0AbASgLq9BzfgIRB8BeBvgF2VV5uV279j0SGm7CbMW1zXU1azLoHHfiNivWwdGn7CsLkOQ2d2TXfLoYWPMtbIsdRfNj3fO8o3J4XhmzdTgd97Um9JyTG6fWvdFYasY5l5S8sMAPOXRAnRePOi6VvcEjUaj0ayhAPkfgE0UnLojHnSP1i2sGYqBXVMzaiOi/t1nYtltCNGVyRhm+6GjvtSi0AbrUjdBIasZnetlkH0SRNuvmfbAY1zVFypUNfvDyf2ZKAGgviw6B/PFsZDnCt0DNBqNRrMWAuQ/ADZXcOoV8aB7jG5hjaZy0UHoBRAJ1S8mh/GrNSngwsBNVeyaVKj48EVNHxPNLxfxAeBSLT40Go1GMwSGVRYsjUajBYjtxJoalvb1yfFgvF7AgPu7RNB9WiFpdgHAG0kdAeYIgOoyedyWeND9B/3WNRqNRjMElTDssmBpNBotQGznkemeDjjlBACv5jikk4n88aD7L4We0xdOnUbAfQAcZTFhEF8XD7ov029bo9FoNEM0MPQOiEaj0QKkGMT9jUknW78G6Nnv/elDSdZeBeftZiZ/xLwahBtRJrE4BLoyEfCcq9+yRqPRaIasEpj0DohGo9ECpFhEQqNTvXUNBwEIDwyF8+CQuxWaZrelhYU/mr6NweeV0VRxbSzouki/XY1Go9EUBWJVQkELEI2mwnHoJlg7Hj2YesF8qLctdVeiyf10oSnbgmGuWijMWWD8pozEx/XxoOc8/VY1Go1GU0SZIFXs77MWIBqNFiAjGiJOAE8VevjkeV+MyvSYUTAmls8z4M/xgOds/TI1Go1GU+T5Rao5rRYgGo0WIJqC8MU6POgR8wDsXUYC6s54c8MZ+u1oNBqNRgFS0Xm1ANFotADRDIa/LT2Os/JxADuXyz0x6K5Ec8OJutqnRqPRaJTMMwxJClywCKznLY2mwtFB6IqZHF6xCUv5QjmJDxDf89N3tfjQaDQajcKphtTsVDCEnrs0mgpH74AoxDenYzOQ8QKYNyqXe+rf+XCdEA9o8aHRaDQapaipA0J6B0SjqXT0DohKY98hrgLKR3wAfK/e+dBoNBqNPVMOehSdV89hGo0WIJo8jftlGd3OX3d+131cSwtJ/WY0Go1GoxoidCuTNhqNRgsQTQ4McTWBPy+DO3nAya5jtPjQaDQajV0wYaUaZaMFiEajBYgmJ7GmhqUkyM9QtA1d2EA928muGZEQWfqNaDQajca26YdZzQ6IdsHSaLQA0eSnrdn9OoATSnFtBh50StcRWnxoNBqNxm4kSLtgaTQaLUBKRSLonsWEK2y9KOH+KnYdqcWHRqPRaEoBAcsUnVgLEI1GCxBNQSIk4L4YhD/bcS0G5ibHuI7W4kOj0Wg0pYJBnys6sRYgGo0WIJpC2fkd15kMzFV8mTlV7Drs2f0oq1tco9FoNKVCYRIWLUA0Gi1ANIXS0kKyil1HgvG4osF+5s7vug7TOx8ajUajKTWczb6jStno1tVotADRrAGREPV196xsBvBykYf6e3d6132sTrWr0Wg0mnIgMXXMpww6B4SPizvdaQGi0VQ6pJugNBzyYLLRWUVPAvjZ0N8i37PzO+7jtfjQaDQaTTkyYybXLG/o3MKQVg3BqJeG5VztdGahAwDIwVnBlAaATJ+zx5KZlQCwYae7884TKKNbVKPRAkSzlvhiHR5kxNMg7KLFh0aj0Wg0Go1mJKBdsEpI3N+YdEIcRMC7a6ce+W4tPjQajUaj0Wg0lYTeASkDmlq71pcy+xyArQr9DQO3JwKuk0GkfWE1Go1Go9FoNBWD3gEpA9qa674UwrEvgPcKlI23afGh0Wg0Go1Go9ECRDMkEZLp470BvDbIoX+JN7t+q8WHRqPRaDQajUYLEM2QeGS6pwMO+Wtm/C3HIZfEg+7fafGh0Wg0Go1Go6lUdAxIGTJxPlfXdJl3MnDEwD8xE85KBNw36NbRaDQajUaj0Wg0xYeZ/OHk+b5IstsfNY/UDaLRaDQajUajGQ78P6QCmec1nL3wAAAAJXRFWHRkYXRlOmNyZWF0ZQAyMDIyLTAzLTI1VDE3OjU3OjQ4KzAwOjAw6610ggAAACV0RVh0ZGF0ZTptb2RpZnkAMjAyMi0wMy0yNVQxNzo1Nzo0OCswMDowMJrwzD4AAAAASUVORK5CYII=;" vertex="1" parent="1">
          <mxGeometry x="160" y="410" width="849.08" height="173" as="geometry" />
        </mxCell>
        <mxCell id="muR9lSCtu8aczNtU-lKI-9" value="" style="html=1;shadow=1;dashed=0;align=center;verticalAlign=middle;shape=mxgraph.arrows2.bendArrow;dy=11.45;dx=41.78;notch=24.78;arrowHead=55;rounded=1;rotation=90;fillColor=#999999;fontColor=#333333;strokeColor=#666666;" vertex="1" parent="1">
          <mxGeometry x="620.32" y="289.89" width="129.79" height="130" as="geometry" />
        </mxCell>
      </root>
    </mxGraphModel>
  </diagram>
</mxfile>
